<?xml version="1.0" encoding="utf-8"?>
<!-- Generator: Adobe Illustrator 23.0.3, SVG Export Plug-In . SVG Version: 6.00 Build 0)  -->
<svg version="1.1" id="Layer_1" xmlns="http://www.w3.org/2000/svg" xmlns:xlink="http://www.w3.org/1999/xlink" x="0px" y="0px"
	 viewBox="0 0 987.4 759.5" style="enable-background:new 0 0 987.4 759.5;" xml:space="preserve">
<style type="text/css">
	.st0{fill-rule:evenodd;clip-rule:evenodd;fill:url(#SVGID_1_);}
	.st1{opacity:0.8062;}
	.st2{fill-rule:evenodd;clip-rule:evenodd;fill:#E2EBFC;}
	.st3{fill:url(#Leaf_1_);}
	.st4{fill:#98BBE9;}
	.st5{fill:#8FAFDA;}
	.st6{fill:url(#SVGID_2_);}
	.st7{fill:#5ACE87;}
	.st8{fill:#42B16D;}
	.st9{fill:url(#SVGID_3_);}
	.st10{fill:#D2DEF8;}
	.st11{fill:url(#Vase-base_1_);}
	.st12{fill:url(#SVGID_4_);}
	.st13{fill-rule:evenodd;clip-rule:evenodd;fill:url(#Path_1_);}
	.st14{fill:url(#Rocket-base_1_);}
	.st15{fill:url(#SVGID_5_);}
	.st16{fill:url(#SVGID_6_);}
	.st17{fill:#9BBBE8;}
	.st18{fill:url(#SVGID_7_);}
	.st19{fill:url(#SVGID_8_);}
	.st20{fill:#FFFFFF;}
	.st21{fill:url(#SVGID_9_);}
	.st22{fill:url(#SVGID_10_);}
	.st23{fill:url(#SVGID_11_);}
	.st24{fill:url(#Table-base_1_);}
	.st25{fill:url(#SVGID_12_);}
	.st26{fill:url(#Imac-base_1_);}
	.st27{fill:url(#SVGID_13_);}
	.st28{fill:url(#Display-base_1_);}
	.st29{fill:url(#SVGID_14_);}
	.st30{fill:url(#SVGID_15_);}
	.st31{fill:url(#SVGID_16_);}
	.st32{fill:url(#SVGID_17_);}
	.st33{fill:url(#SVGID_18_);}
	.st34{fill:none;stroke:#FFFFFF;stroke-width:1.2;stroke-linecap:round;stroke-linejoin:round;}
	.st35{fill:url(#SVGID_19_);}
	.st36{fill:url(#SVGID_20_);}
	.st37{fill:url(#SVGID_21_);}
	.st38{fill:url(#SVGID_22_);}
	.st39{fill:url(#SVGID_23_);}
	.st40{fill:url(#SVGID_24_);}
	.st41{fill:url(#SVGID_25_);}
	.st42{fill:url(#SVGID_26_);}
	.st43{fill:#B06C57;}
	.st44{fill:url(#SVGID_27_);}
	.st45{fill:url(#SVGID_28_);}
	.st46{fill:#111AA7;}
	.st47{fill:url(#SVGID_29_);}
	.st48{fill:url(#SVGID_30_);}
	.st49{filter:url(#Adobe_OpacityMaskFilter);}
	.st50{fill-rule:evenodd;clip-rule:evenodd;fill:#FFFFFF;}
	.st51{opacity:0.5;mask:url(#mask-26_1_);fill:#EFAB45;enable-background:new    ;}
	.st52{fill:url(#SVGID_31_);}
	.st53{fill:#D2D9FF;}
	.st54{fill:url(#Wheel_1_);}
	.st55{fill:url(#SVGID_32_);}
	.st56{fill:url(#SVGID_33_);}
	.st57{fill:url(#SVGID_34_);}
	.st58{fill:url(#SVGID_35_);}
	.st59{fill:url(#SVGID_36_);}
</style>
<title>START UP@2x</title>
<desc>Created with Sketch.</desc>
<g id="START-UP">
	<g id="Background" transform="translate(271.000000, 214.000000)">
		
			<linearGradient id="SVGID_1_" gradientUnits="userSpaceOnUse" x1="225.9349" y1="177.8711" x2="225.9048" y2="179.1808" gradientTransform="matrix(-929.1906 0 0 -637.7153 210121.3281 113885.3281)">
			<stop  offset="0" style="stop-color:#FFFFFF;stop-opacity:0"/>
			<stop  offset="1" style="stop-color:#E2EBFC"/>
		</linearGradient>
		<ellipse class="st0" cx="193.6" cy="188.9" rx="464.6" ry="318.9"/>
	</g>
	<g id="Shadow" transform="translate(219.000000, 797.000000)" class="st1">
		<ellipse class="st2" cx="397.2" cy="-119" rx="219" ry="11"/>
		<ellipse class="st2" cx="698.2" cy="-113.8" rx="64" ry="13.2"/>
		<ellipse class="st2" cx="450.2" cy="-55.8" rx="94" ry="18.2"/>
	</g>
	<g id="leaves" transform="translate(181.000000, 510.000000)">
		
			<g id="Leaves" transform="translate(136.982509, 133.079657) scale(-1, 1) rotate(-16.000000) translate(-136.982509, -133.079657) translate(82.482509, 11.079657)">
			
				<linearGradient id="Leaf_1_" gradientUnits="userSpaceOnUse" x1="-57.0072" y1="-168.6537" x2="-57.0072" y2="-170.6966" gradientTransform="matrix(57.6928 103.7103 131.3008 -153.9124 25160.7773 -20491.4727)">
				<stop  offset="0" style="stop-color:#FFFFFF"/>
				<stop  offset="1" style="stop-color:#B3CDEF"/>
			</linearGradient>
			<path id="Leaf" class="st3" d="M-400-238.9c6.6,9.4,10.3,13.9,4.6,25.7s-27.8,5.9-33.2,17.2c-5.4,11.3,18.8,25.6,12,39.7
				c-6.8,14.2-26.4,10.4-30.4,23.6c-4,13.2,21.3,28.3,10.7,50.3c-10.6,22.1-29.2,19.4-51.7,3s-35.8-30.1-26.1-50.7
				c9.7-20.6,19.5-19.1,23.9-28.4c4.4-9.3-8.5-23.4-1.3-38.8c7.2-15.4,26.7-1.6,31.3-11.4s-4.6-15,0.9-26.8s15.8-7.4,22.3-10.4
				c6.5-3,19.4-32.9,32.2-26.6C-391.8-266-406.6-248.2-400-238.9z"/>
			<path id="leaves-base" class="st4" d="M-490.3-127.9c0.3-0.6,0.9-0.8,1.4-0.5c0.5,0.3,0.6,1.1,0.4,1.7c-5.7,12-3.7,23.3,6,34.3
				c0.4,0.5,0.4,1.3,0,1.8c-0.4,0.5-1,0.6-1.4,0.1C-494.3-102.3-496.5-114.9-490.3-127.9z"/>
			<path class="st4" d="M-475.2-170.3c0-0.7,0.5-1.2,1.1-1.2c0.6,0.1,1,0.7,1,1.3c-0.6,13.8,3.3,22.8,11.7,27.2
				c0.5,0.3,0.8,1,0.6,1.7c-0.2,0.7-0.8,1-1.3,0.7C-471.5-145.4-475.8-155.5-475.2-170.3z"/>
			<path class="st4" d="M-447.6-226.6c0-0.5,0.3-0.8,0.7-0.8c0.4,0,0.7,0.4,0.7,0.9c-0.2,6.9,1.9,11.2,6.3,13.1
				c0.4,0.2,0.6,0.6,0.4,1.1c-0.1,0.4-0.5,0.7-0.9,0.5C-445.4-214.1-447.8-219.1-447.6-226.6z"/>
			<path class="st4" d="M-420-221.2c0.3-0.3,0.4-0.8,0.2-1.1c-0.2-0.3-0.7-0.4-1.1-0.1c-5.1,4.3-9.5,5-13.6,2.2
				c-0.3-0.2-0.8-0.1-1,0.3c-0.2,0.4-0.2,0.9,0.2,1.1C-430.7-215.7-425.6-216.5-420-221.2z"/>
			<path class="st4" d="M-430.5-159.9c0.5-0.4,0.6-1.2,0.3-1.7c-0.3-0.5-1-0.6-1.5-0.2c-9.1,7.7-17.1,8.7-24.1,3.3
				c-0.5-0.4-1.1-0.2-1.5,0.3c-0.4,0.5-0.3,1.3,0.2,1.6C-449.3-150.4-440.3-151.6-430.5-159.9z"/>
			<path class="st4" d="M-447.1-101.9c0.5-0.4,0.6-1.2,0.3-1.7c-0.3-0.5-1-0.6-1.5-0.2c-9.1,7.5-16.8,8.4-23.6,2.6
				c-0.5-0.4-1.1-0.3-1.5,0.3c-0.4,0.5-0.3,1.3,0.2,1.7C-465.7-92.8-456.9-93.7-447.1-101.9z"/>
			<path class="st5" d="M-496-72.7c8.5-15.8,19-23.9,27.8-42.5s5.9-52.5,18-81.2c6.5-15.4,17.1-26.5,23.8-35.7
				c6.7-9.2,12-22.6,12.3-22.5c0.2,0.1-4.9,13.2-11.6,22.8c-6.7,9.6-19.1,22.7-24.9,41.9c-7.1,23.7-7.8,59.1-13.5,74.5
				c-5.7,15.4-22.3,33-28.6,46.1c-4.2,8.8-7,16-8.4,21.6c-0.4,0.8-2.1,0.4-2.7-0.1c-0.6-0.5-0.8-1.5-0.4-2.3
				C-504.4-54.6-501.7-62.2-496-72.7z"/>
		</g>
		
			<g transform="translate(84.361701, 144.156680) rotate(-17.000000) translate(-84.361701, -144.156680) translate(34.361701, 19.156680)">
			
				<linearGradient id="SVGID_2_" gradientUnits="userSpaceOnUse" x1="342.821" y1="-56.5951" x2="342.9938" y2="-57.4337" gradientTransform="matrix(-114.1962 -1.7123 89.963 -185.6602 45004.3398 -9764.0664)">
				<stop  offset="0" style="stop-color:#84F0A8"/>
				<stop  offset="1" style="stop-color:#48B676"/>
			</linearGradient>
			<path class="st6" d="M794.8,124.4c5.3,9.9,8.4,14.8,1.1,25.6c-7.3,10.8-29.2,2.9-36.3,13.5c-7.1,10.6,16.1,26.2,7.4,39.1
				s-28.9,8.1-34.7,20.4c-5.8,12.3,19.6,27.7,6.2,47.6c-13.4,19.9-33.4,17-56.4,1.5s-36.1-28.6-22.7-48.5
				c13.4-19.9,23.9-18.3,29.9-27.2s-5.8-23.3,4.4-38.3s28.6-0.1,34.9-9.4s-2.5-15.3,5.1-26.6c7.6-11.3,17.5-6.1,24.6-8.4
				c7.1-2.3,25-30.9,36.8-22.9S789.5,114.5,794.8,124.4z"/>
			<path id="Leaves-base" class="st7" d="M685.2,226c0.4-0.6,1.1-0.8,1.6-0.4s0.6,1.1,0.2,1.6c-7.7,11.4-6.9,22.1,2.5,32.7
				c0.4,0.4,0.3,1.2-0.2,1.7s-1.2,0.5-1.6,0.1C677.7,250.3,676.8,238.3,685.2,226z"/>
			<path class="st7" d="M706.8,185c0.1-0.7,0.7-1.2,1.2-1.1c0.6,0.1,1,0.7,0.9,1.4c-2.2,13.6,0.9,22.7,9.3,27.6
				c0.5,0.3,0.7,1,0.4,1.7s-0.9,0.9-1.4,0.6C708,209.8,704.5,199.6,706.8,185z"/>
			<path class="st7" d="M744.3,131.6c0.1-0.5,0.5-0.8,0.8-0.7c0.4,0.1,0.7,0.5,0.6,0.9c-1.1,6.9,0.5,11.5,4.7,13.9
				c0.4,0.2,0.5,0.7,0.3,1.1c-0.2,0.4-0.6,0.6-1,0.4C744.9,144.4,743.1,139.1,744.3,131.6z"/>
			<path class="st7" d="M755.6,139.4c0.3-0.3,0.8-0.4,1.2-0.2c3.9,3,8.7,2.8,14.7-0.8c0.4-0.2,0.9-0.2,1.1,0.2s0,0.8-0.3,1.1
				c-6.6,3.9-12.2,4.2-16.5,0.8C755.3,140.2,755.3,139.8,755.6,139.4z"/>
			<path class="st7" d="M724.1,198.2c0.5-0.5,1.2-0.6,1.7-0.2c6.9,5.4,15.7,4.9,26.5-1.6c0.6-0.4,1.3-0.2,1.6,0.3
				c0.3,0.5,0.1,1.2-0.5,1.5c-11.7,7-21.6,7.6-29.3,1.6C723.6,199.4,723.6,198.7,724.1,198.2z"/>
			<path class="st7" d="M699.9,252.1c0.5-0.5,1.2-0.6,1.7-0.2c6.9,5.4,15.7,4.9,26.5-1.6c0.6-0.4,1.3-0.2,1.6,0.3
				c0.3,0.5,0.1,1.2-0.5,1.5c-11.7,7-21.6,7.6-29.3,1.6C699.4,253.2,699.4,252.6,699.9,252.1z"/>
			<path class="st8" d="M672.4,278.3c11.1-14.8,23.4-22.3,35.1-39.6c11.7-17.3,12.8-50,29.6-77.3c9-14.6,21.5-24.6,29.8-33.1
				c8.2-8.4,15.7-21.1,15.9-21c0.2,0.1-7,12.5-15.3,21.4c-8.3,8.8-23.1,20.7-31.8,39c-10.7,22.6-15.9,56.5-23.8,70.9
				c-7.9,14.4-27.9,30.6-36.2,42.8c-5.5,8.2-9.3,14.9-11.5,20.1c-0.5,0.8-2.3,0.4-3,0s-0.8-1.4-0.3-2.2
				C661.3,295.2,665.1,288.1,672.4,278.3z"/>
		</g>
		
			<g transform="translate(164.000000, 165.500000) scale(-1, 1) rotate(-28.000000) translate(-164.000000, -165.500000) translate(114.000000, 59.000000)">
			
				<linearGradient id="SVGID_3_" gradientUnits="userSpaceOnUse" x1="40.3121" y1="-219.0474" x2="40.2048" y2="-220.0474" gradientTransform="matrix(-21.5451 121.035 159.6314 -51.0442 35580.6172 -16374.1328)">
				<stop  offset="0" style="stop-color:#FFFFFF"/>
				<stop  offset="1" style="stop-color:#E5EEFF"/>
			</linearGradient>
			<path class="st9" d="M-262.7-281.6c1.8,10.7,3.2,16.3-6,22.4c-9.2,6.2-25.9-9.8-34.9-3.7c-9,6.1,6.7,29.3-4.3,36.8
				c-11,7.4-27.1-5.2-35.4,3s9.3,32-7.7,43.5s-33.4,0.6-48.9-22.4c-15.5-23-23.2-39.7-6.2-51.2c17-11.4,25.6-5.6,33.2-10.8
				c7.6-5.1,1.4-22.4,14.2-31.1c12.8-8.6,24.6,11.9,32.5,6.6s2-14.2,11.7-20.7c9.7-6.5,16.7,2.2,23.4,3.1c6.7,1,29.9-16,37.9-4.2
				C-245.2-298.5-264.5-292.3-262.7-281.6z"/>
			<path class="st10" d="M-384.6-240.4c0.5-0.3,1.1-0.2,1.5,0.3s0.2,1.1-0.3,1.5c-9.7,6.5-12,16.1-6.8,29.1c0.2,0.5-0.1,1.2-0.6,1.4
				s-1.2,0-1.4-0.6C-397.8-222.6-395.2-233.3-384.6-240.4z"/>
			<path class="st10" d="M-354.8-265.6c0.3-0.5,1-0.7,1.5-0.4c0.5,0.3,0.7,1,0.4,1.5c-6.1,10.1-6,18.6,0.2,25.8
				c0.4,0.4,0.3,1.1-0.1,1.5s-1.1,0.3-1.5-0.1C-361.1-245.2-361.3-254.7-354.8-265.6z"/>
			<path class="st10" d="M-308-296.2c0.2-0.3,0.6-0.4,1-0.2c0.3,0.2,0.5,0.6,0.2,1c-3.1,5.1-3,9.4,0.2,13c0.3,0.3,0.2,0.8-0.1,1
				c-0.3,0.3-0.8,0.2-1-0.1C-311.3-285.6-311.4-290.6-308-296.2z"/>
			<path class="st10" d="M-300-285c0.4-0.2,0.8,0,1,0.3c2.2,4.3,6.1,6,12,5c0.4-0.1,0.8,0.2,0.8,0.6c0.1,0.4-0.2,0.8-0.6,0.8
				c-6.5,1-11-0.9-13.5-5.8C-300.5-284.3-300.3-284.8-300-285z"/>
			<path class="st10" d="M-342.8-247.5c0.5-0.3,1.2-0.1,1.4,0.5c4,7.7,11.1,10.7,21.8,9c0.6-0.1,1.1,0.3,1.2,0.9
				c0.1,0.6-0.3,1.1-0.9,1.2c-11.5,1.8-19.6-1.5-24-10.1C-343.5-246.6-343.3-247.3-342.8-247.5z"/>
			<path class="st10" d="M-378.3-211.4c0.5-0.3,1.2-0.1,1.4,0.5c4,7.7,11.1,10.7,21.8,9c0.6-0.1,1.1,0.3,1.2,0.9
				c0.1,0.6-0.3,1.1-0.9,1.2c-11.5,1.8-19.6-1.5-24-10.1C-379-210.5-378.8-211.2-378.3-211.4z"/>
			<path class="st10" d="M-409.9-200.9c13.6-8.1,26.2-9.3,41-19.2c14.8-10,24.7-37.6,46.6-54c11.7-8.8,25.2-12.1,34.6-15.9
				s19.3-11.6,19.4-11.3c0.1,0.2-9.4,7.8-19,12c-9.5,4.1-25.5,8-38,20.2c-15.4,14.9-29.1,41.9-39.8,50.9
				c-10.7,9-32.4,14.5-42.8,21.6c-7,4.7-12.1,8.9-15.4,12.5c-0.6,0.4-2.1-0.6-2.6-1.3s-0.3-1.5,0.4-2
				C-424.1-191-418.9-195.5-409.9-200.9z"/>
		</g>
		<g id="vase" transform="translate(73.000000, 244.000000)">
			
				<linearGradient id="Vase-base_1_" gradientUnits="userSpaceOnUse" x1="235.5078" y1="-352.0338" x2="235.1219" y2="-353.5901" gradientTransform="matrix(-85.043 0 0 -53.7224 20662.0586 -19073.8418)">
				<stop  offset="0" style="stop-color:#E5EDFF"/>
				<stop  offset="1" style="stop-color:#6B9AD9"/>
			</linearGradient>
			<polygon id="Vase-base" class="st11" points="671.6,-74.6 624.3,-74.6 605.4,-128.3 690.5,-128.3 			"/>
			
				<linearGradient id="SVGID_4_" gradientUnits="userSpaceOnUse" x1="235.4693" y1="-331.2595" x2="235.5497" y2="-334.3217" gradientTransform="matrix(-86.7439 0 0 -16.7883 21077.3906 -5705.3501)">
				<stop  offset="0" style="stop-color:#E5EDFF"/>
				<stop  offset="1" style="stop-color:#6B9AD9"/>
			</linearGradient>
			<path class="st12" d="M692.2-124.6v6c0,3-2.4,5.4-5.4,5.4h-75.9c-3,0-5.4-2.4-5.4-5.4v-6c0-3,2.4-5.4,5.4-5.4h75.9
				C689.8-130,692.2-127.6,692.2-124.6z"/>
		</g>
	</g>
	<g id="Rocket" transform="translate(509.000000, 130.000000)">
		
			<linearGradient id="Path_1_" gradientUnits="userSpaceOnUse" x1="-12.8309" y1="263.7559" x2="-12.8309" y2="264.6473" gradientTransform="matrix(-467 0 0 -184.8976 -6043.3267 49198.2852)">
			<stop  offset="0" style="stop-color:#FFFFFF"/>
			<stop  offset="1" style="stop-color:#D9E5FF"/>
		</linearGradient>
		<path id="Path" class="st13" d="M-81.1,277.6c2.9-14,15.3-24.5,30.2-24.5c15,0,27.6,10.8,30.3,25c6.2,3.8,11.4,9.1,15.1,15.4
			c7.4,1.3,13.8,5.3,18.4,10.8c3.5-2.7,7.8-4.3,12.5-4.3c11.2,0,20.3,9.1,20.3,20.3c0,1.2-0.1,2.4-0.3,3.5c0.1,0,0.2,0,0.3,0
			c9.4,0,17.9,4.2,23.5,10.9c8.3-11.3,21.6-18.6,36.7-18.6c25.1,0,45.5,20.4,45.5,45.5c0,0.5,0,0.9,0,1.4h0
			c17,0,30.8,13.8,30.8,30.8c0,17-13.8,30.8-30.8,30.8c-6.4,0-12.3-1.9-17.2-5.3c-4.7,10.9-15.6,18.6-28.3,18.6
			c-14.6,0-26.8-10.2-30-23.8c-4.4,3.8-10,6.1-16.2,6.3c-7.8,7-18.1,11.2-29.4,11.2c-16,0-29.9-8.5-37.7-21.2
			c-9.3,14.4-25.5,24-43.9,24s-34.6-9.6-43.9-24c-7.7,12.7-21.7,21.2-37.7,21.2c-11.3,0-21.6-4.2-29.4-11.2
			c-6.2-0.2-11.9-2.5-16.2-6.3c-3.2,13.6-15.4,23.8-30,23.8c-12.7,0-23.5-7.6-28.3-18.6c-4.9,3.3-10.8,5.3-17.2,5.3
			c-17,0-30.8-13.8-30.8-30.8c0-17,13.8-30.8,30.8-30.8h0c0-0.5,0-0.9,0-1.4c0-25.1,20.4-45.5,45.5-45.5c15.1,0,28.4,7.3,36.7,18.6
			c5.7-6.7,14.1-10.9,23.5-10.9c0.1,0,0.2,0,0.3,0c-0.2-1.1-0.3-2.3-0.3-3.5c0-11.2,9.1-20.3,20.3-20.3c4.7,0,9.1,1.6,12.5,4.3
			c4.6-5.6,11-9.5,18.4-10.8C-93.2,287-87.7,281.5-81.1,277.6z"/>
		<g transform="translate(71.415292, 0.000000)">
			
				<linearGradient id="Rocket-base_1_" gradientUnits="userSpaceOnUse" x1="-90.8053" y1="267.318" x2="-91.1912" y2="265.7617" gradientTransform="matrix(-84.018 0 0 -105.7559 -7663.106 28325.8652)">
				<stop  offset="0" style="stop-color:#E5EDFF"/>
				<stop  offset="1" style="stop-color:#6B9AD9"/>
			</linearGradient>
			<path id="Rocket-base" class="st14" d="M39.4,221.6h-84V115.8c28,5.7,49,17.4,63,35S39.4,192.1,39.4,221.6z"/>
			
				<linearGradient id="SVGID_5_" gradientUnits="userSpaceOnUse" x1="-90.9047" y1="267.3427" x2="-91.2905" y2="265.7864" gradientTransform="matrix(-84.018 0 0 -105.7559 -7901.1572 28325.8652)">
				<stop  offset="0" style="stop-color:#E5EDFF"/>
				<stop  offset="1" style="stop-color:#6B9AD9"/>
			</linearGradient>
			<path class="st15" d="M-198.7,115.8v105.8h-84c0-29.5,7-53.1,21-70.7C-247.7,133.2-226.7,121.5-198.7,115.8z"/>
			
				<linearGradient id="SVGID_6_" gradientUnits="userSpaceOnUse" x1="-87.0628" y1="264.3927" x2="-87.0628" y2="262.3499" gradientTransform="matrix(-163.7076 0 0 -371.8964 -14375.2188 97808.8594)">
				<stop  offset="0" style="stop-color:#FFFFFF"/>
				<stop  offset="1" style="stop-color:#B3CDEF"/>
			</linearGradient>
			<path class="st16" d="M-122.4-130c30.4,10.3,52.5,46.5,66.2,108.5c8.6,39.1,13.9,119.8,15.7,242.1c0,0.1,0,0.2,0,0.3
				c0,11.6-9.4,21-21,21h-121.7c-0.1,0-0.2,0-0.3,0c-11.6-0.2-20.9-9.7-20.7-21.3c1.8-122.3,7-203,15.7-242.1
				C-174.9-83.5-152.8-119.7-122.4-130z"/>
			<path id="Shape" class="st17" d="M-50.5,180.5h-42v-7h42V180.5z M-50.5,191.9h-25v-7h25V191.9z"/>
			
				<linearGradient id="SVGID_7_" gradientUnits="userSpaceOnUse" x1="-89.0638" y1="269.8777" x2="-89.3547" y2="266.928" gradientTransform="matrix(-109.4875 0 0 -67.9359 -9889.8223 18171.2012)">
				<stop  offset="0" style="stop-color:#E5EDFF"/>
				<stop  offset="1" style="stop-color:#6B9AD9"/>
			</linearGradient>
			<path class="st18" d="M-177.1-62.1c13.4-37.5,31.7-60.1,54.7-67.9c23.1,7.8,41.3,30.5,54.7,67.9H-177.1z"/>
			
				<linearGradient id="SVGID_8_" gradientUnits="userSpaceOnUse" x1="-90.9399" y1="268.3683" x2="-91.2308" y2="265.4186" gradientTransform="matrix(-85.4183 0 0 -85.4451 -7898.6719 22858.7754)">
				<stop  offset="0" style="stop-color:#E5EDFF"/>
				<stop  offset="1" style="stop-color:#6B9AD9"/>
			</linearGradient>
			<path class="st19" d="M-165.1,12.9c0-23.6,19.1-42.7,42.7-42.7s42.7,19.1,42.7,42.7s-19.1,42.7-42.7,42.7S-165.1,36.5-165.1,12.9
				z"/>
			<path class="st20" d="M-87.4,12.9c0-19.3-15.7-35-35-35s-35,15.7-35,35s15.7,35,35,35S-87.4,32.2-87.4,12.9z"/>
			
				<linearGradient id="SVGID_9_" gradientUnits="userSpaceOnUse" x1="-88.1733" y1="283.0883" x2="-88.5592" y2="281.532" gradientTransform="matrix(-125.3268 0 0 -24.5129 -11201.8906 7166.2866)">
				<stop  offset="0" style="stop-color:#E5EDFF"/>
				<stop  offset="1" style="stop-color:#6B9AD9"/>
			</linearGradient>
			<path class="st21" d="M-67.7,257.6c-2.1,5.3-7.3,8.8-13,8.8h-86.9c-5.7,0-10.9-3.5-13-8.8l-6.2-15.7h125.3L-67.7,257.6z"/>
			
				<linearGradient id="SVGID_10_" gradientUnits="userSpaceOnUse" x1="-104.3956" y1="266.9947" x2="-104.7814" y2="265.4384" gradientTransform="matrix(-32.2069 0 0 -113.4599 -3496.0161 30343.627)">
				<stop  offset="0" style="stop-color:#E5EDFF"/>
				<stop  offset="1" style="stop-color:#6B9AD9"/>
			</linearGradient>
			<path class="st22" d="M-112,124.2l6.4,104.4h-32.2l6.4-104.4c0.3-5.1,4.5-9.1,9.7-9.1C-116.6,115.1-112.3,119.1-112,124.2z"/>
		</g>
	</g>
	<g id="Group-5" transform="translate(386.000000, 461.000000)">
		<g transform="translate(0.010183, 0.000000)">
			<g id="Table" transform="translate(0.000000, 136.112903)">
				
					<linearGradient id="SVGID_11_" gradientUnits="userSpaceOnUse" x1="83.959" y1="-201.1269" x2="83.959" y2="-204.2518" gradientTransform="matrix(-25.613 0 0 -195.8871 2544.8088 -39791.9727)">
					<stop  offset="0" style="stop-color:#95B7E5"/>
					<stop  offset="1" style="stop-color:#476DB1"/>
				</linearGradient>
				<path class="st23" d="M404-111.8h-18.9L404,65.6V-111.8z M407.2-115V78.5c0,1.3-1.1,2.4-2.4,2.4c-1.4,0-2.5-1-2.7-2.4L381.6-115
					H407.2z"/>
				
					<linearGradient id="Table-base_1_" gradientUnits="userSpaceOnUse" x1="83.959" y1="-201.1269" x2="83.959" y2="-204.2518" gradientTransform="matrix(-25.613 0 0 -195.8871 2216.6423 -39791.9727)">
					<stop  offset="0" style="stop-color:#95B7E5"/>
					<stop  offset="1" style="stop-color:#476DB1"/>
				</linearGradient>
				<path id="Table-base" class="st24" d="M75.4-111.8H56.6V65.6L75.4-111.8z M58.4,78.5c-0.1,1.4-1.3,2.4-2.7,2.4
					c-1.3,0-2.4-1.1-2.4-2.4V-115H79L58.4,78.5z"/>
				
					<linearGradient id="SVGID_12_" gradientUnits="userSpaceOnUse" x1="109.9936" y1="-173.7748" x2="109.7597" y2="-174.6353" gradientTransform="matrix(-393 0 0 -15.9908 43410.6406 -2907.3079)">
					<stop  offset="0" style="stop-color:#476DB1"/>
					<stop  offset="1" style="stop-color:#283F6F"/>
				</linearGradient>
				<polygon class="st25" points="427.2,-113.4 34.2,-113.4 34.2,-129.4 427.2,-129.4 				"/>
			</g>
			<g id="Imac" transform="translate(101.841141, 0.000000)">
				
					<linearGradient id="Imac-base_1_" gradientUnits="userSpaceOnUse" x1="-6.19" y1="-50.0336" x2="-7.184" y2="-54.4088" gradientTransform="matrix(-44.0224 0 0 -26.3848 -152.8644 -1333.4167)">
					<stop  offset="0" style="stop-color:#476DB1"/>
					<stop  offset="1" style="stop-color:#283F6F"/>
				</linearGradient>
				<polygon id="Imac-base" class="st26" points="146,11.5 102,11.5 102,-14.9 146,-14.9 				"/>
				
					<linearGradient id="SVGID_13_" gradientUnits="userSpaceOnUse" x1="6.3967" y1="-64.7249" x2="6.1628" y2="-65.5854" gradientTransform="matrix(-199.3014 0 0 -115.9332 1375.5938 -7627.3896)">
					<stop  offset="0" style="stop-color:#476DB1"/>
					<stop  offset="1" style="stop-color:#283F6F"/>
				</linearGradient>
				<path class="st27" d="M224.5-126.8v109.5c0,1.8-1.4,3.2-3.2,3.2H28.4c-1.8,0-3.2-1.4-3.2-3.2v-109.5c0-1.8,1.4-3.2,3.2-3.2
					h192.9C223.1-130,224.5-128.6,224.5-126.8z"/>
				<g id="Display" transform="translate(8.000000, 7.000000)">
					
						<linearGradient id="Display-base_1_" gradientUnits="userSpaceOnUse" x1="-1.9508" y1="-71.1998" x2="-2.789" y2="-73.9477" gradientTransform="matrix(-183.2933 0 0 -99.9424 -256.243 -7222.627)">
						<stop  offset="0" style="stop-color:#F7FAFF"/>
						<stop  offset="1" style="stop-color:#6B9AD9"/>
					</linearGradient>
					<polygon id="Display-base" class="st28" points="208.5,-29.1 25.2,-29.1 25.2,-129 208.5,-129 					"/>
					
						<linearGradient id="SVGID_14_" gradientUnits="userSpaceOnUse" x1="-48.8206" y1="-52.1932" x2="-49.2065" y2="-53.7495" gradientTransform="matrix(-13.9406 0 0 -21.6277 -596.8575 -1196.7058)">
						<stop  offset="0" style="stop-color:#E5EDFF"/>
						<stop  offset="1" style="stop-color:#6B9AD9"/>
					</linearGradient>
					<path class="st29" d="M94.5-54v19.6c0,0.6-0.4,1-1,1H81.5c-0.6,0-1-0.4-1-1V-54c0-0.6,0.4-1,1-1h11.9C94-55,94.5-54.6,94.5-54z
						"/>
					
						<linearGradient id="SVGID_15_" gradientUnits="userSpaceOnUse" x1="-49.0924" y1="-57.5489" x2="-49.0924" y2="-59.5918" gradientTransform="matrix(-13.9406 0 0 -28.8369 -630.8575 -1751.6072)">
						<stop  offset="0" style="stop-color:#FFFFFF"/>
						<stop  offset="1" style="stop-color:#B3CDEF"/>
					</linearGradient>
					<path class="st30" d="M60.5-61v26.8c0,0.6-0.4,1-1,1H47.5c-0.6,0-1-0.4-1-1V-61c0-0.6,0.4-1,1-1h11.9C60-62,60.5-61.6,60.5-61z
						"/>
					
						<linearGradient id="SVGID_16_" gradientUnits="userSpaceOnUse" x1="-48.8207" y1="-48.7544" x2="-49.2065" y2="-50.3106" gradientTransform="matrix(-13.9406 0 0 -18.8369 -647.8575 -981.6072)">
						<stop  offset="0" style="stop-color:#E5EDFF"/>
						<stop  offset="1" style="stop-color:#6B9AD9"/>
					</linearGradient>
					<path class="st31" d="M43.5-51v16.8c0,0.6-0.4,1-1,1H30.5c-0.6,0-1-0.4-1-1V-51c0-0.6,0.4-1,1-1h11.9C43-52,43.5-51.6,43.5-51z
						"/>
					
						<linearGradient id="SVGID_17_" gradientUnits="userSpaceOnUse" x1="-49.0924" y1="-62.2966" x2="-49.0924" y2="-64.3395" gradientTransform="matrix(-13.9406 0 0 -39.6508 -613.8575 -2584.4604)">
						<stop  offset="0" style="stop-color:#FFFFFF"/>
						<stop  offset="1" style="stop-color:#B3CDEF"/>
					</linearGradient>
					<path class="st32" d="M77.5-72v37.7c0,0.6-0.4,1-1,1H64.5c-0.6,0-1-0.4-1-1V-72c0-0.6,0.4-1,1-1h11.9C77-73,77.5-72.6,77.5-72z
						"/>
					<g transform="translate(114.000000, 6.000000)">
						
							<linearGradient id="SVGID_18_" gradientUnits="userSpaceOnUse" x1="-123.1185" y1="-69.8016" x2="-123.1185" y2="-71.8444" gradientTransform="matrix(-64.8006 0 0 -45 -8030.0991 -3318)">
							<stop  offset="0" style="stop-color:#FFFFFF"/>
							<stop  offset="1" style="stop-color:#B3CDEF"/>
						</linearGradient>
						<path class="st33" d="M-19.5-129.2v43.4c0,0.4-0.4,0.8-0.8,0.8h-63.2c-0.4,0-0.8-0.4-0.8-0.8v-43.4c0-0.4,0.4-0.8,0.8-0.8
							h63.2C-19.9-130-19.5-129.6-19.5-129.2z"/>
						<path class="st34" d="M-79.6-124.1l11.1,15.6c0.1,0.2,0.3,0.3,0.4,0.4c0.7,0.5,1.7,0.3,2.2-0.5l6.3-9.6
							c0.1-0.1,0.2-0.3,0.4-0.4c0.7-0.5,1.7-0.4,2.2,0.3l13.1,16.9c0,0.1,0.1,0.1,0.2,0.2c0.6,0.6,1.7,0.6,2.3-0.1l6.9-7.2
							c0.1-0.1,0.2-0.2,0.4-0.3c0.8-0.4,1.7-0.2,2.2,0.6l8.1,13.8L-79.6-124.1z"/>
						<path class="st34" d="M-80.2-111.3l9,8.2c0.6,0.6,1.5,0.6,2.1,0l7.9-7.2c0.6-0.6,1.6-0.5,2.2,0.1l7,7.1c0.5,0.6,1.4,0.6,2,0.2
							l7.3-4.9c0.6-0.4,1.3-0.4,1.9,0.1l16.8,13.4L-80.2-111.3z"/>
					</g>
					<g transform="translate(22.000000, 6.000000)">
						
							<linearGradient id="SVGID_19_" gradientUnits="userSpaceOnUse" x1="-29.6285" y1="-64.0106" x2="-29.6285" y2="-66.0535" gradientTransform="matrix(-75 0 0 -29.6227 -2095.1511 -1995.6831)">
							<stop  offset="0" style="stop-color:#FFFFFF"/>
							<stop  offset="1" style="stop-color:#B3CDEF"/>
						</linearGradient>
						<path class="st35" d="M122.2-64.7c0.5-2.2,2.5-3.9,4.8-3.9c2.4,0,4.4,1.7,4.9,4c1,0.6,1.8,1.5,2.4,2.5c1.2,0.2,2.2,0.8,3,1.7
							c0.6-0.4,1.3-0.7,2-0.7c1.8,0,3.3,1.5,3.3,3.3c0,0.2,0,0.4,0,0.6c0,0,0,0,0,0c1.5,0,2.9,0.7,3.8,1.7c1.3-1.8,3.5-3,5.9-3
							c4,0,7.3,3.3,7.3,7.3c0,0.1,0,0.1,0,0.2h0c2.7,0,4.9,2.2,4.9,4.9c0,2.7-2.2,4.9-4.9,4.9c-1,0-2-0.3-2.8-0.8
							c-0.8,1.8-2.5,3-4.5,3c-2.3,0-4.3-1.6-4.8-3.8c-0.7,0.6-1.6,1-2.6,1c-1.3,1.1-2.9,1.8-4.7,1.8c-2.6,0-4.8-1.4-6.1-3.4
							c-1.5,2.3-4.1,3.8-7,3.8c-3,0-5.6-1.5-7-3.8c-1.2,2-3.5,3.4-6.1,3.4c-1.8,0-3.5-0.7-4.7-1.8c-1,0-1.9-0.4-2.6-1
							c-0.5,2.2-2.5,3.8-4.8,3.8c-2,0-3.8-1.2-4.5-3c-0.8,0.5-1.7,0.8-2.8,0.8c-2.7,0-4.9-2.2-4.9-4.9c0-2.7,2.2-4.9,4.9-4.9h0
							c0-0.1,0-0.1,0-0.2c0-4,3.3-7.3,7.3-7.3c2.4,0,4.6,1.2,5.9,3c0.9-1.1,2.3-1.7,3.8-1.7c0,0,0,0,0,0c0-0.2,0-0.4,0-0.6
							c0-1.8,1.5-3.3,3.3-3.3c0.8,0,1.5,0.3,2,0.7c0.7-0.9,1.8-1.5,3-1.7C120.3-63.2,121.1-64.1,122.2-64.7z"/>
						<g id="Group-3" transform="translate(11.469265, 0.000000)">
							
								<linearGradient id="SVGID_20_" gradientUnits="userSpaceOnUse" x1="-83.8789" y1="-51.8005" x2="-84.2648" y2="-53.3568" gradientTransform="matrix(-13.4933 0 0 -16.9433 -1002.0039 -977.9645)">
								<stop  offset="0" style="stop-color:#E5EDFF"/>
								<stop  offset="1" style="stop-color:#6B9AD9"/>
							</linearGradient>
							<path class="st36" d="M141.5-73.7h-13.5v-16.9c4.5,0.9,7.9,2.8,10.1,5.6C140.4-82.2,141.5-78.4,141.5-73.7z"/>
							
								<linearGradient id="SVGID_21_" gradientUnits="userSpaceOnUse" x1="-83.9783" y1="-51.7759" x2="-84.3642" y2="-53.3322" gradientTransform="matrix(-13.4933 0 0 -16.9433 -1040.2347 -977.9645)">
								<stop  offset="0" style="stop-color:#E5EDFF"/>
								<stop  offset="1" style="stop-color:#6B9AD9"/>
							</linearGradient>
							<path class="st37" d="M103.3-90.6v16.9H89.8c0-4.7,1.1-8.5,3.4-11.3C95.4-87.8,98.8-89.7,103.3-90.6z"/>
							
								<linearGradient id="SVGID_22_" gradientUnits="userSpaceOnUse" x1="-58.6361" y1="-72.5317" x2="-58.6361" y2="-74.5746" gradientTransform="matrix(-26.2915 0 0 -59.582 -1426.0543 -4513.7241)">
								<stop  offset="0" style="stop-color:#FFFFFF"/>
								<stop  offset="1" style="stop-color:#B3CDEF"/>
							</linearGradient>
							<path class="st38" d="M115.6-130c4.9,1.7,8.4,7.4,10.6,17.4c1.4,6.3,2.2,19.2,2.5,38.8c0,0,0,0,0,0.1c0,1.9-1.5,3.4-3.4,3.4
								l-19.6,0c0,0,0,0-0.1,0c-1.9,0-3.3-1.6-3.3-3.4h0c0.3-19.6,1.1-32.5,2.5-38.8C107.1-122.6,110.7-128.3,115.6-130z"/>
							
								<linearGradient id="SVGID_23_" gradientUnits="userSpaceOnUse" x1="-71.8628" y1="-35.3893" x2="-72.1536" y2="-38.339" gradientTransform="matrix(-17.5837 0 0 -10.8841 -1150.6157 -520.4957)">
								<stop  offset="0" style="stop-color:#E5EDFF"/>
								<stop  offset="1" style="stop-color:#6B9AD9"/>
							</linearGradient>
							<path class="st39" d="M106.8-119.1c2.2-6,5.1-9.6,8.8-10.9c3.7,1.3,6.6,4.9,8.8,10.9H106.8z"/>
							
								<linearGradient id="SVGID_24_" gradientUnits="userSpaceOnUse" x1="-83.2895" y1="-44.8358" x2="-83.5803" y2="-47.7855" gradientTransform="matrix(-13.7181 0 0 -13.6893 -1028.3452 -734.4749)">
								<stop  offset="0" style="stop-color:#E5EDFF"/>
								<stop  offset="1" style="stop-color:#6B9AD9"/>
							</linearGradient>
							<path class="st40" d="M108.7-107.1c0-3.8,3.1-6.8,6.9-6.8c3.8,0,6.9,3.1,6.9,6.8s-3.1,6.8-6.9,6.8
								C111.8-100.3,108.7-103.3,108.7-107.1z"/>
							<path class="st20" d="M121.2-107.1c0-3.1-2.5-5.6-5.6-5.6c-3.1,0-5.6,2.5-5.6,5.6s2.5,5.6,5.6,5.6
								C118.7-101.5,121.2-104,121.2-107.1z"/>
							
								<linearGradient id="SVGID_25_" gradientUnits="userSpaceOnUse" x1="-66.6886" y1="46.4341" x2="-67.0744" y2="44.8778" gradientTransform="matrix(-20.1274 0 0 -3.9272 -1231.3595 109.5475)">
								<stop  offset="0" style="stop-color:#E5EDFF"/>
								<stop  offset="1" style="stop-color:#6B9AD9"/>
							</linearGradient>
							<path class="st41" d="M124.4-67.9c-0.3,0.9-1.2,1.4-2.1,1.4h-14c-0.9,0-1.7-0.6-2.1-1.4l-1-2.5h20.1L124.4-67.9z"/>
							
								<linearGradient id="SVGID_26_" gradientUnits="userSpaceOnUse" x1="-168.5225" y1="-53.8133" x2="-168.9084" y2="-55.3696" gradientTransform="matrix(-5.1724 0 0 -18.1776 -757.9219 -1079.2874)">
								<stop  offset="0" style="stop-color:#E5EDFF"/>
								<stop  offset="1" style="stop-color:#6B9AD9"/>
							</linearGradient>
							<path class="st42" d="M117.2-89.3l1,16.7h-5.2l1-16.7c0.1-0.8,0.7-1.5,1.6-1.5C116.5-90.7,117.2-90.1,117.2-89.3z"/>
						</g>
					</g>
				</g>
			</g>
		</g>
	</g>
	<g id="Man" transform="translate(376.000000, 378.000000)">
		<g transform="translate(80.000000, 270.000000)">
			<path id="leg" class="st43" d="M161.5,32l-5,8.1l-11.4,5.9c-2.8-0.6-3.2-2.6-1.2-5.9c2.9-5.1-4.9-9.2-6.9-18.5
				c-2-9.3,17.1-6.3,18.3-5.5C156.2,16.7,158.2,22,161.5,32z"/>
			
				<linearGradient id="SVGID_27_" gradientUnits="userSpaceOnUse" x1="27.0905" y1="-240.1485" x2="26.0905" y2="-240.1485" gradientTransform="matrix(-47.0232 0 0 -30.7005 1395.1241 -7327.0063)">
				<stop  offset="0" style="stop-color:#2865C6"/>
				<stop  offset="1" style="stop-color:#10378A"/>
			</linearGradient>
			<path class="st44" d="M167.3,39.2c0.8,2.8,1.1,5.9,0.9,9.4c-29.4,9.5-44.3,13.6-44.8,12.1c-4.1-6.2-3-7.2,8.4-16
				c4.7-3.6,9.2-5.9,12-8.5c1-0.9,5.4,3.5,9.8,2.1c4.4-1.4,5.5-8.3,8.3-8C164.6,30.6,166.1,35.1,167.3,39.2z"/>
			<path class="st43" d="M244.2,11.9c1.7,9.3,2.2,11.5,3.4,15.1c0.8,2.4,1.4,4.1,1.9,5.2l-12.8-1l-7.5-7.1
				c-1.3-9.3-1.7-14.3-1.1-15.2C228.9,7.7,242.5,2.6,244.2,11.9z"/>
			
				<linearGradient id="SVGID_28_" gradientUnits="userSpaceOnUse" x1="14.3662" y1="-233.7703" x2="13.3662" y2="-233.7703" gradientTransform="matrix(-25.5182 0 0 -22.0856 591.9509 -5133.7485)">
				<stop  offset="0" style="stop-color:#2865C6"/>
				<stop  offset="1" style="stop-color:#10378A"/>
			</linearGradient>
			<path class="st45" d="M246.4,22.4c1.4,1.3,9.3,13.7,0,17.5c-2.3,0.9-9.3-0.1-21-3.3c-0.2-3.5,0.1-6.7,0.9-9.4
				c1.2-4.1,5.8-9,10.5-9S245.5,21.5,246.4,22.4z"/>
			<path class="st46" d="M288.1-91L275-62.5l-45.6,6.2l16.2,66c-2.2,5.5-4.9,8.5-8.2,9s-7-0.8-11.2-3.8
				c-58.5-73.9-48.5-123.8-36.8-139c7.8-10.1,33.3-5.1,76.7,15.2L288.1-91z"/>
			
				<linearGradient id="SVGID_29_" gradientUnits="userSpaceOnUse" x1="35.7466" y1="-252.3621" x2="35.6601" y2="-252.8621" gradientTransform="matrix(-118.2199 0 0 -138.2832 4367.9648 -35010.0508)">
				<stop  offset="0" style="stop-color:#3485F7"/>
				<stop  offset="1" style="stop-color:#1A57CF"/>
			</linearGradient>
			<path class="st47" d="M198.1-91l10.4,44.6l-69.2-9.9l18.2,74c-2.2,5.5-4.9,8.5-8.2,9s-9-0.4-17.1-2.6
				C89.7-50.9,83.9-86.3,95.6-101.5c7.8-10.1,34.6-12.6,80.4-7.5L198.1-91z"/>
		</g>
		<g transform="translate(11.000000, 120.000000)">
			<path class="st43" d="M366.1-123.8l58.1,57.7L417,7.4l-72.6,67c-44.1-40.7-67.9-66.7-71.4-78c-4.9,5.2-23.1,30.3-35.4,30.3
				c-8.2,0-25.9-16.4-53.1-49.1c-2.7-1.3-4.5-2.4-5.4-3.3c-2.4-2.6-1.7-4.9-1.7-6.2s4.8-5,10-6.9c0.9-0.3,3.1,1.2,4,0.9
				c1.9-0.5,3.7-0.9,5.4-0.9c1.9,0,2.5,2,3.8,3.4c1.3,1.4,3.2,0.2,3.2,3.8c0,2.4-1.5,4.4-4.5,5.9c19.3,9.1,30,15,32,17.7
				c11.2-7.5,27.8-58.7,37.2-78.5c7.8-16.4,28.3-27,61.4-31.6c-0.5,2,1.3,5.2,5.3,9.4c4,4.2,15.3,2.1,33.8-6.4L366.1-123.8z"/>
			<g>
				
					<linearGradient id="SVGID_30_" gradientUnits="userSpaceOnUse" x1="106.9005" y1="-103.6935" x2="106.9005" y2="-104.8022" gradientTransform="matrix(-187.3842 0 0 -228.4134 20363.8809 -23839.0117)">
					<stop  offset="0" style="stop-color:#FFE579"/>
					<stop  offset="1" style="stop-color:#FEB755"/>
				</linearGradient>
				<path class="st48" d="M366.8-123.8c17.4-10.6,31.3-5.6,41.7,15.1c7.9,15.8,13.8,30.3,17.6,43.4l-9,72.7l-71.9,67
					c-31.6,12.8-52.1,20.9-61.6,24.3c-14.2,5.2-42.4-34.7-44.3-41.3c-1-3.5-1-12.1,1.8-14.8c8.4-3.8,20.7-22,36.8-54.6
					c-27.7-13.2-38.7-25.2-32.7-35.8c12.6-22.5,14.1-26.8,20.9-41.2c7.7-16.4,27.9-26.3,60.5-29.6c4.7,6.5,12.5,9.8,23.5,9.8
					S366.7-113.7,366.8-123.8z"/>
			</g>
			<defs>
				<filter id="Adobe_OpacityMaskFilter" filterUnits="userSpaceOnUse" x="235" y="-31.8" width="57.9" height="76.6">
					<feColorMatrix  type="matrix" values="1 0 0 0 0  0 1 0 0 0  0 0 1 0 0  0 0 0 1 0"/>
				</filter>
			</defs>
			<mask maskUnits="userSpaceOnUse" x="235" y="-31.8" width="57.9" height="76.6" id="mask-26_1_">
				<g class="st49">
					<path id="path-25_1_" class="st50" d="M366.8-123.8c17.4-10.6,31.3-5.6,41.7,15.1c7.9,15.8,13.8,30.3,17.6,43.4l-9,72.7
						l-71.9,67c-31.6,12.8-52.1,20.9-61.6,24.3c-14.2,5.2-42.4-34.7-44.3-41.3c-1-3.5-1-12.1,1.8-14.8c8.4-3.8,20.7-22,36.8-54.6
						c-27.7-13.2-38.7-25.2-32.7-35.8c12.6-22.5,14.1-26.8,20.9-41.2c7.7-16.4,27.9-26.3,60.5-29.6c4.7,6.5,12.5,9.8,23.5,9.8
						S366.7-113.7,366.8-123.8z"/>
				</g>
			</mask>
			<path class="st51" d="M238,39.6c-6.8,5.3-2.4,6.5,13.4,3.6c23.6-4.4,43.4-68.9,41.3-75c-3.2,4.6-8.5,11.4-15.8,20.4L238,39.6z"/>
		</g>
		<g transform="translate(41.000000, 0.000000)">
			<path class="st43" d="M341.2-33.7c7.6-2.4,11.3-6.8,11.3-13.3s-2.9-8.5-8.8-5.9c0-4.8,0-10.4,0-16.6c0-9.3-18.2-30.3-30.1-21.7
				c-49.1,12.4-30.8,63-26.4,67.3c2.9,2.9,6.6,2.9,11.1,0c2.4,4.1,3.6,9.1,3.6,14.9s-2.1,12-6.2,18.6c11.1,6.4,20.7,9.6,28.9,9.6
				c12.3,0,17.3-12.2,14.5-17.1c-1.9-3.2-4.4-9.8-7.5-19.8L341.2-33.7z"/>
			
				<linearGradient id="SVGID_31_" gradientUnits="userSpaceOnUse" x1="72.9168" y1="17.5019" x2="72.1144" y2="19.0667" gradientTransform="matrix(-87.3705 0 0 -109.2826 6661.4268 1902.8955)">
				<stop  offset="0" style="stop-color:#032258"/>
				<stop  offset="1" style="stop-color:#133E94"/>
			</linearGradient>
			<path class="st52" d="M350.2-112.5c9.7,7.8,13,16,10.1,24.6c6.7,9.2,6.7,22.2,0,38.9c-6.7,16.7-16.4,26.5-29.1,29.2
				c-17.8-7.8-28.1-15.1-30.9-21.9c-0.5-1.1,2.5-0.8,4.8-6.2c2.3-5.4,2.9-11.7-1.5-13.1c-4.1-1.4-7.9,0.8-11.3,6.4
				c0-12.9,0-19.4,0-19.4s-16.7-16.8-14.1-33.2c2.6-16,16.2-30.2,30.5-15.9S335.7-124.1,350.2-112.5z"/>
		</g>
		<g id="Chair" transform="translate(0.000000, 187.000000)">
			<polygon id="Chair-base" class="st53" points="294.2,103 282.2,103 282.2,54 294.2,54 			"/>
			
				<linearGradient id="Wheel_1_" gradientUnits="userSpaceOnUse" x1="82.366" y1="-145.1661" x2="82.1321" y2="-146.0266" gradientTransform="matrix(-18 0 0 -18 1833.6011 -2455)">
				<stop  offset="0" style="stop-color:#476DB1"/>
				<stop  offset="1" style="stop-color:#283F6F"/>
			</linearGradient>
			<circle id="Wheel" class="st54" cx="353.2" cy="166" r="9"/>
			
				<linearGradient id="SVGID_32_" gradientUnits="userSpaceOnUse" x1="82.366" y1="-145.1661" x2="82.1321" y2="-146.0266" gradientTransform="matrix(-18 0 0 -18 1707.6011 -2455)">
				<stop  offset="0" style="stop-color:#476DB1"/>
				<stop  offset="1" style="stop-color:#283F6F"/>
			</linearGradient>
			<circle class="st55" cx="227.2" cy="166" r="9"/>
			
				<linearGradient id="SVGID_33_" gradientUnits="userSpaceOnUse" x1="82.366" y1="-145.1661" x2="82.1321" y2="-146.0266" gradientTransform="matrix(-18 0 0 -18 1768.6011 -2445)">
				<stop  offset="0" style="stop-color:#476DB1"/>
				<stop  offset="1" style="stop-color:#283F6F"/>
			</linearGradient>
			<circle class="st56" cx="288.2" cy="176" r="9"/>
			
				<linearGradient id="SVGID_34_" gradientUnits="userSpaceOnUse" x1="116.6267" y1="-164.7874" x2="116.6267" y2="-167.9123" gradientTransform="matrix(-140.2394 0 0 -73.9394 16644.7266 -12187.4209)">
				<stop  offset="0" style="stop-color:#95B7E5"/>
				<stop  offset="1" style="stop-color:#476DB1"/>
			</linearGradient>
			<path class="st57" d="M300.7,112.4l55.8,38.3c0.1,0.1,0.3,0.2,0.4,0.3c2.6,2.1,3,6,0.8,8.6c-2.5,3-6.7,3.8-10.1,1.9l-49.3-27.2
				l-3.3,35.1c-0.3,3.7-3.5,6.6-7.3,6.5c-3.8-0.1-6.9-3-7.2-6.8l-2.6-33.9l-47.6,26.2c-3.4,1.9-7.6,1.1-10.1-1.9
				c-2.1-2.6-1.8-6.5,0.8-8.6c0.1-0.1,0.3-0.2,0.4-0.3l54.7-37.6l-0.5-6.4c-0.2-2.2,1.5-4.1,3.7-4.3c0.1,0,0.1,0,0.2,0l17.2-0.4
				c2.2,0,4,1.7,4.1,3.9c0,0.2,0,0.3,0,0.5l-0.7,7.5L300.7,112.4z"/>
			
				<linearGradient id="SVGID_35_" gradientUnits="userSpaceOnUse" x1="117.472" y1="-170.3916" x2="117.2381" y2="-171.2522" gradientTransform="matrix(-163.8468 0 0 -188.5817 19593.6992 -32252.2695)">
				<stop  offset="0" style="stop-color:#476DB1"/>
				<stop  offset="1" style="stop-color:#283F6F"/>
			</linearGradient>
			<path class="st58" d="M392.4-93.6c-32.5,14.1-53.8-2.8-70.9,6.9c-17,9.8-10.7,57.2-16.3,80.5c-6,24.8-21.2,33.5-21.8,50.6
				c-0.3,8.3,9.2,7.5,15.3,10.2c9.3,4.1,19.4,5.2,30.5,3.5c11.4-10.5,25.2-24.5,41.6-42.1c28.7-30.9,65.5-80.2,75-131.5
				c0-0.1,0.6-2.7,1.6-8.7c-2.9-4.2-12.2-7.4-18.2-4C422.9-124.8,415.4-103.6,392.4-93.6z"/>
			
				<linearGradient id="SVGID_36_" gradientUnits="userSpaceOnUse" x1="118.741" y1="-169.073" x2="118.741" y2="-172.198" gradientTransform="matrix(-240.8035 0 0 -200.5049 28920.1699 -34310.0859)">
				<stop  offset="0" style="stop-color:#95B7E5"/>
				<stop  offset="1" style="stop-color:#476DB1"/>
			</linearGradient>
			<path class="st59" d="M408.4-87.6c-34.9,15.4-63.9,3.9-77.5,12.9c-14.3,9.5-5.3,98.8-34.9,111.6c-5.3,2.3-61.9-18.9-79.5-13.7
				s-9.5,25.9,6,35.5S280,77.1,310,75.6c34-1.7,76.5-21.5,87.8-32.8c11.4-11.3,21.9-23.2,30.2-51.4c5.5-18.6,11.9-57.3,19.3-116.2
				C431.6-104.5,418.6-92.1,408.4-87.6z"/>
		</g>
	</g>
</g>
</svg>
