<?xml version="1.0" encoding="utf-8"?>
<!-- Generator: Adobe Illustrator 23.0.4, SVG Export Plug-In . SVG Version: 6.00 Build 0)  -->
<svg version="1.1" id="Layer_1" xmlns="http://www.w3.org/2000/svg" xmlns:xlink="http://www.w3.org/1999/xlink" x="0px" y="0px"
	 viewBox="0 0 1600 1200" style="enable-background:new 0 0 1600 1200;" xml:space="preserve">
<style type="text/css">
	.st0{fill:none;stroke:#44AB96;stroke-width:13;stroke-linecap:round;stroke-linejoin:round;}
	.st1{fill:none;stroke:#DA774A;stroke-width:13;stroke-linecap:round;stroke-linejoin:round;}
	.st2{fill:none;stroke:#FFB017;stroke-width:13;stroke-linecap:round;stroke-linejoin:round;}
	.st3{fill:none;stroke:#4484AB;stroke-width:13;stroke-linecap:round;stroke-linejoin:round;}
	.st4{fill:none;stroke:#E53855;stroke-width:13;stroke-linecap:round;stroke-linejoin:round;}
</style>
<path class="st0" d="M1600,833c0,32-25.7,58-57.5,58s-57.5-26-57.5-58"/>
<path class="st1" d="M1600,296V127.7c0-33-26.9-59.7-60-59.7s-60,26.7-60,59.7v26.1"/>
<circle class="st0" cx="588" cy="227" r="40"/>
<circle class="st0" cx="184" cy="91" r="63"/>
<path class="st2" d="M184.5,228C262.1,228,325,166,325,89.5S262.1-49,184.5-49S44,13,44,89.5"/>
<path class="st0" d="M1311.2,1058.5c-21.3,79.8,24.8,161.6,103.1,182.6c78.3,21,159.1-26.6,180.4-106.5
	c21.3-79.8-24.8-161.6-103.1-182.6"/>
<path class="st0" d="M328.5,248c-31.8,0-57.5,25.7-57.5,57.5s25.7,57.5,57.5,57.5s57.5-25.7,57.5-57.5V248"/>
<path class="st0" d="M1462,704c0,33.7,26.9,61,60,61s60-27.3,60-61s-26.9-61-60-61h-201"/>
<path class="st3" d="M966-26.2c-35.3,0-64,28.3-64,63.1s28.7,63.1,64,63.1s64-28.3,64-63.1V-166"/>
<path class="st1" d="M1089.5,396.6c31.8,0,57.5,25.6,57.5,57.2s-25.7,57.2-57.5,57.2s-57.5-25.6-57.5-57.2V240"/>
<path class="st2" d="M688.7,228c0-56.9-45.4-103-101.4-103c-56,0-101.4,46.1-101.4,103s45.4,103,101.4,103H853"/>
<path class="st0" d="M1498.6,561c56,0,101.4-46.1,101.4-103s-45.4-103-101.4-103H1233"/>
<path class="st1" d="M1107,9.5c0-53.3,42.7-96.5,95.5-96.5h98.1c52.7,0,95.5,43.2,95.5,96.5l0,0c0,53.3-42.7,96.5-95.5,96.5h-98.1
	C1149.7,106,1107,62.8,1107,9.5L1107,9.5z"/>
<path class="st4" d="M828,629.5v-89.3c0-25.5,20.8-46.2,46.5-46.2l0,0c25.7,0,46.5,20.7,46.5,46.2v178.7c0,25.5-20.8,46.2-46.5,46.2
	l0,0l0,0c-25.7,0-46.5-20.7-46.5-46.2v-21.6"/>
<path class="st2" d="M914,151.9v7.8c0,44.3-36,80.3-80.5,80.3l0,0c-44.5,0-80.5-35.9-80.5-80.3V-84.7c0-44.3,36-80.3,80.5-80.3l0,0
	c44.5,0,80.5,35.9,80.5,80.3v2.4"/>
<path class="st0" d="M751,494v231.6c0,69.2,56.6,125.4,126.5,125.4S1004,794.9,1004,725.6v-54.7"/>
<path class="st3" d="M586,535h-49.2c-33,0-59.8-26.9-59.8-60s26.8-60,59.8-60h98.4c33,0,59.8,26.9,59.8,60v5.3
	c0,30.2-24.4,54.7-54.5,54.7"/>
<path class="st0" d="M1089.5,306h56.2c37.7,0,68.3-28.9,68.3-64.5s-30.6-64.5-68.3-64.5h-112.4c-37.7,0-68.3,28.9-68.3,64.5"/>
<path class="st0" d="M675,37H540.3C455.1,37,386,106.4,386,192"/>
<path class="st4" d="M1449.5,1040.8c31.8,0,57.5,25.6,57.5,57.1s-25.7,57.1-57.5,57.1s-57.5-25.6-57.5-57.1V726"/>
<path class="st0" d="M1019,1078c0-58.5,46.8-106,104.6-106H1308"/>
<path class="st3" d="M747,415h98.4c66.1,0,119.6-53.7,119.6-120"/>
<path class="st3" d="M1321,728v53.8c0,54.3-44,98.2-98.3,98.2H1146"/>
<path class="st1" d="M1507,460h-84c-60.8,0-110,49.7-110,111"/>
<path class="st0" d="M1088.5,583c0,7.7,0,104.5,0,152"/>
<path class="st2" d="M1233,421v142.3c0,22.4-18.3,40.5-40.9,40.5s-40.9,18.2-40.9,40.6v8.4c0,22.4,18.3,40.6,40.9,40.6
	s40.9,18.2,40.9,40.6v9.3c0,27.5-22.5,49.9-50.2,49.9h-26h-38.1 M954,926h26.8c55.3,0,100.2-44.8,100.2-100.1"/>
<path class="st4" d="M1481,223.9v20.3c0,28.6-23.3,51.8-51.9,51.8l0,0c-28.7,0-52-23.2-52-51.8v-16.8c0-28.4-23.1-51.4-51.5-51.4
	l0,0c-28.5,0-51.6,23-51.6,51.4v20.7"/>
<path class="st3" d="M1089,1120c0-40.3,32.7-73,73-73l0,0c40.3,0,73,32.7,73,73v53.1c0,40.3-32.7,73-73,73l0,0
	c-40.3,0-73-32.7-73-73V1120z"/>
</svg>
