<svg width="100" height="100" xmlns="http://www.w3.org/2000/svg"><g fill="#565D66" fill-rule="nonzero"><path d="M7.608 3h.921L3 8.53v-.922L7.608 3zm.921 4.608v.921h-.921l.921-.921zM13.137 3h.922l-5.53 5.53v-.922L13.137 3zm.922 4.608v.921h-.922l.922-.921z"/><path d="M18.667 3h.921l-5.53 5.53v-.922L18.668 3zm.921 4.608v.921h-.921l.921-.921zM24.196 3h.922l-5.53 5.53v-.922L24.196 3zm.922 4.608v.921h-.922l.922-.921z"/><path d="M29.725 3h.922l-5.53 5.53v-.922L29.726 3zm.922 4.608v.921h-.922l.922-.921zM35.255 3h.921l-5.529 5.53v-.922L35.255 3zm.921 4.608v.921h-.921l.921-.921z"/><path d="M40.784 3h.922l-5.53 5.53v-.922L40.784 3zm.922 4.608v.921h-.922l.922-.921z"/><path d="M46.314 3h.921l-5.53 5.53v-.922L46.315 3zm.921 4.608v.921h-.921l.921-.921zM51.843 3h.922l-5.53 5.53v-.922L51.843 3zm.922 4.608v.921h-.922l.922-.921z"/><path d="M57.373 3h.921l-5.53 5.53v-.922L57.374 3zm.921 4.608v.921h-.921l.921-.921zM62.902 3h.922l-5.53 5.53v-.922L62.902 3zm.922 4.608v.921h-.922l.922-.921z"/><path d="M68.431 3h.922l-5.53 5.53v-.922L68.432 3zm.922 4.608v.921h-.922l.922-.921z"/><path d="M73.96 3h.922l-5.53 5.53v-.922L73.962 3zm.922 4.608v.921h-.921l.921-.921zM79.49 3h.922l-5.53 5.53v-.922L79.49 3zm.922 4.608v.921h-.922l.922-.921z"/><path d="M85.02 3h.921l-5.53 5.53v-.922L85.02 3zm.921 4.608v.921h-.921l.921-.921zM90.549 3h.922l-5.53 5.53v-.922L90.55 3zm.922 4.608v.921h-.922l.922-.921z"/><path d="M96.078 3H97l-5.53 5.53v-.922L96.079 3zM97 7.608v.921h-.922L97 7.608zM7.608 8.53h.921L3 14.058v-.922L7.608 8.53zm.921 4.607v.922h-.921l.921-.922zM13.137 8.53h.922l-5.53 5.529v-.922l4.608-4.608zm.922 4.607v.922h-.922l.922-.922z"/><path d="M18.667 8.53h.921l-5.53 5.529v-.922l4.609-4.608zm.921 4.607v.922h-.921l.921-.922zM24.196 8.53h.922l-5.53 5.529v-.922l4.608-4.608zm.922 4.607v.922h-.922l.922-.922z"/><path d="M29.725 8.53h.922l-5.53 5.529v-.922l4.608-4.608zm.922 4.607v.922h-.922l.922-.922zM35.255 8.53h.921l-5.529 5.529v-.922l4.608-4.608zm.921 4.607v.922h-.921l.921-.922z"/><path d="M40.784 8.53h.922l-5.53 5.529v-.922l4.608-4.608zm.922 4.607v.922h-.922l.922-.922z"/><path d="M46.314 8.53h.921l-5.53 5.529v-.922l4.609-4.608zm.921 4.607v.922h-.921l.921-.922zM51.843 8.53h.922l-5.53 5.529v-.922l4.608-4.608zm.922 4.607v.922h-.922l.922-.922z"/><path d="M57.373 8.53h.921l-5.53 5.529v-.922l4.609-4.608zm.921 4.607v.922h-.921l.921-.922zM62.902 8.53h.922l-5.53 5.529v-.922l4.608-4.608zm.922 4.607v.922h-.922l.922-.922z"/><path d="M68.431 8.53h.922l-5.53 5.529v-.922l4.608-4.608zm.922 4.607v.922h-.922l.922-.922z"/><path d="M73.96 8.53h.922l-5.53 5.529v-.922l4.609-4.608zm.922 4.607v.922h-.921l.921-.922zM79.49 8.53h.922l-5.53 5.529v-.922L79.49 8.53zm.922 4.607v.922h-.922l.922-.922z"/><path d="M85.02 8.53h.921l-5.53 5.529v-.922L85.02 8.53zm.921 4.607v.922h-.921l.921-.922zM90.549 8.53h.922l-5.53 5.529v-.922L90.55 8.53zm.922 4.607v.922h-.922l.922-.922z"/><path d="M96.078 8.53H97l-5.53 5.529v-.922l4.608-4.608zM97 13.136v.922h-.922l.922-.922zM7.608 14.059h.921L3 19.589v-.922l4.608-4.608zm.921 4.608v.921h-.921l.921-.921zM13.137 14.059h.922l-5.53 5.53v-.922l4.608-4.608zm.922 4.608v.921h-.922l.922-.921z"/><path d="M18.667 14.059h.921l-5.53 5.53v-.922l4.609-4.608zm.921 4.608v.921h-.921l.921-.921zM24.196 14.059h.922l-5.53 5.53v-.922l4.608-4.608zm.922 4.608v.921h-.922l.922-.921z"/><path d="M29.725 14.059h.922l-5.53 5.53v-.922l4.608-4.608zm.922 4.608v.921h-.922l.922-.921zM35.255 14.059h.921l-5.529 5.53v-.922l4.608-4.608zm.921 4.608v.921h-.921l.921-.921z"/><path d="M40.784 14.059h.922l-5.53 5.53v-.922l4.608-4.608zm.922 4.608v.921h-.922l.922-.921z"/><path d="M46.314 14.059h.921l-5.53 5.53v-.922l4.609-4.608zm.921 4.608v.921h-.921l.921-.921zM51.843 14.059h.922l-5.53 5.53v-.922l4.608-4.608zm.922 4.608v.921h-.922l.922-.921z"/><path d="M57.373 14.059h.921l-5.53 5.53v-.922l4.609-4.608zm.921 4.608v.921h-.921l.921-.921zM62.902 14.059h.922l-5.53 5.53v-.922l4.608-4.608zm.922 4.608v.921h-.922l.922-.921z"/><path d="M68.431 14.059h.922l-5.53 5.53v-.922l4.608-4.608zm.922 4.608v.921h-.922l.922-.921z"/><path d="M73.96 14.059h.922l-5.53 5.53v-.922l4.609-4.608zm.922 4.608v.921h-.921l.921-.921zM79.49 14.059h.922l-5.53 5.53v-.922l4.608-4.608zm.922 4.608v.921h-.922l.922-.921z"/><path d="M85.02 14.059h.921l-5.53 5.53v-.922l4.609-4.608zm.921 4.608v.921h-.921l.921-.921zM90.549 14.059h.922l-5.53 5.53v-.922l4.608-4.608zm.922 4.608v.921h-.922l.922-.921z"/><path d="M96.078 14.059H97l-5.53 5.53v-.922l4.608-4.608zM97 18.667v.921h-.922l.922-.921zM7.608 19.588h.921L3 25.118v-.922l4.608-4.608zm.921 4.608v.922h-.921l.921-.922zM13.137 19.588h.922l-5.53 5.53v-.922l4.608-4.608zm.922 4.608v.922h-.922l.922-.922z"/><path d="M18.667 19.588h.921l-5.53 5.53v-.922l4.609-4.608zm.921 4.608v.922h-.921l.921-.922zM24.196 19.588h.922l-5.53 5.53v-.922l4.608-4.608zm.922 4.608v.922h-.922l.922-.922z"/><path d="M29.725 19.588h.922l-5.53 5.53v-.922l4.608-4.608zm.922 4.608v.922h-.922l.922-.922zM35.255 19.588h.921l-5.529 5.53v-.922l4.608-4.608zm.921 4.608v.922h-.921l.921-.922z"/><path d="M40.784 19.588h.922l-5.53 5.53v-.922l4.608-4.608zm.922 4.608v.922h-.922l.922-.922z"/><path d="M46.314 19.588h.921l-5.53 5.53v-.922l4.609-4.608zm.921 4.608v.922h-.921l.921-.922zM51.843 19.588h.922l-5.53 5.53v-.922l4.608-4.608zm.922 4.608v.922h-.922l.922-.922z"/><path d="M57.373 19.588h.921l-5.53 5.53v-.922l4.609-4.608zm.921 4.608v.922h-.921l.921-.922zM62.902 19.588h.922l-5.53 5.53v-.922l4.608-4.608zm.922 4.608v.922h-.922l.922-.922z"/><path d="M68.431 19.588h.922l-5.53 5.53v-.922l4.608-4.608zm.922 4.608v.922h-.922l.922-.922z"/><path d="M73.96 19.588h.922l-5.53 5.53v-.922l4.609-4.608zm.922 4.608v.922h-.921l.921-.922zM79.49 19.588h.922l-5.53 5.53v-.922l4.608-4.608zm.922 4.608v.922h-.922l.922-.922z"/><path d="M85.02 19.588h.921l-5.53 5.53v-.922l4.609-4.608zm.921 4.608v.922h-.921l.921-.922zM90.549 19.588h.922l-5.53 5.53v-.922l4.608-4.608zm.922 4.608v.922h-.922l.922-.922z"/><path d="M96.078 19.588H97l-5.53 5.53v-.922l4.608-4.608zM97 24.196v.922h-.922l.922-.922zM7.608 25.118h.921L3 30.648v-.923l4.608-4.607zm.921 4.607v.922h-.921l.921-.922zM13.137 25.118h.922l-5.53 5.53v-.923l4.608-4.607zm.922 4.607v.922h-.922l.922-.922z"/><path d="M18.667 25.118h.921l-5.53 5.53v-.923l4.609-4.607zm.921 4.607v.922h-.921l.921-.922zM24.196 25.118h.922l-5.53 5.53v-.923l4.608-4.607zm.922 4.607v.922h-.922l.922-.922z"/><path d="M29.725 25.118h.922l-5.53 5.53v-.923l4.608-4.607zm.922 4.607v.922h-.922l.922-.922zM35.255 25.118h.921l-5.529 5.53v-.923l4.608-4.607zm.921 4.607v.922h-.921l.921-.922z"/><path d="M40.784 25.118h.922l-5.53 5.53v-.923l4.608-4.607zm.922 4.607v.922h-.922l.922-.922z"/><path d="M46.314 25.118h.921l-5.53 5.53v-.923l4.609-4.607zm.921 4.607v.922h-.921l.921-.922zM51.843 25.118h.922l-5.53 5.53v-.923l4.608-4.607zm.922 4.607v.922h-.922l.922-.922z"/><path d="M57.373 25.118h.921l-5.53 5.53v-.923l4.609-4.607zm.921 4.607v.922h-.921l.921-.922zM62.902 25.118h.922l-5.53 5.53v-.923l4.608-4.607zm.922 4.607v.922h-.922l.922-.922z"/><path d="M68.431 25.118h.922l-5.53 5.53v-.923l4.608-4.607zm.922 4.607v.922h-.922l.922-.922z"/><path d="M73.96 25.118h.922l-5.53 5.53v-.923l4.609-4.607zm.922 4.607v.922h-.921l.921-.922zM79.49 25.118h.922l-5.53 5.53v-.923l4.608-4.607zm.922 4.607v.922h-.922l.922-.922z"/><path d="M85.02 25.118h.921l-5.53 5.53v-.923l4.609-4.607zm.921 4.607v.922h-.921l.921-.922zM90.549 25.118h.922l-5.53 5.53v-.923l4.608-4.607zm.922 4.607v.922h-.922l.922-.922z"/><path d="M96.078 25.118H97l-5.53 5.53v-.923l4.608-4.607zM97 29.725v.922h-.922l.922-.922zM7.608 30.647h.921L3 36.177v-.922l4.608-4.608zm.921 4.608v.921h-.921l.921-.921zM13.137 30.647h.922l-5.53 5.53v-.922l4.608-4.608zm.922 4.608v.921h-.922l.922-.921z"/><path d="M18.667 30.647h.921l-5.53 5.53v-.922l4.609-4.608zm.921 4.608v.921h-.921l.921-.921zM24.196 30.647h.922l-5.53 5.53v-.922l4.608-4.608zm.922 4.608v.921h-.922l.922-.921z"/><path d="M29.725 30.647h.922l-5.53 5.53v-.922l4.608-4.608zm.922 4.608v.921h-.922l.922-.921zM35.255 30.647h.921l-5.529 5.53v-.922l4.608-4.608zm.921 4.608v.921h-.921l.921-.921z"/><path d="M40.784 30.647h.922l-5.53 5.53v-.922l4.608-4.608zm.922 4.608v.921h-.922l.922-.921z"/><path d="M46.314 30.647h.921l-5.53 5.53v-.922l4.609-4.608zm.921 4.608v.921h-.921l.921-.921zM51.843 30.647h.922l-5.53 5.53v-.922l4.608-4.608zm.922 4.608v.921h-.922l.922-.921z"/><path d="M57.373 30.647h.921l-5.53 5.53v-.922l4.609-4.608zm.921 4.608v.921h-.921l.921-.921zM62.902 30.647h.922l-5.53 5.53v-.922l4.608-4.608zm.922 4.608v.921h-.922l.922-.921z"/><path d="M68.431 30.647h.922l-5.53 5.53v-.922l4.608-4.608zm.922 4.608v.921h-.922l.922-.921z"/><path d="M73.96 30.647h.922l-5.53 5.53v-.922l4.609-4.608zm.922 4.608v.921h-.921l.921-.921zM79.49 30.647h.922l-5.53 5.53v-.922l4.608-4.608zm.922 4.608v.921h-.922l.922-.921z"/><path d="M85.02 30.647h.921l-5.53 5.53v-.922l4.609-4.608zm.921 4.608v.921h-.921l.921-.921zM90.549 30.647h.922l-5.53 5.53v-.922l4.608-4.608zm.922 4.608v.921h-.922l.922-.921z"/><path d="M96.078 30.647H97l-5.53 5.53v-.922l4.608-4.608zM97 35.255v.921h-.922l.922-.921zM7.608 36.176h.921L3 41.706v-.922l4.608-4.608zm.921 4.608v.922h-.921l.921-.922zM13.137 36.176h.922l-5.53 5.53v-.922l4.608-4.608zm.922 4.608v.922h-.922l.922-.922z"/><path d="M18.667 36.176h.921l-5.53 5.53v-.922l4.609-4.608zm.921 4.608v.922h-.921l.921-.922zM24.196 36.176h.922l-5.53 5.53v-.922l4.608-4.608zm.922 4.608v.922h-.922l.922-.922z"/><path d="M29.725 36.176h.922l-5.53 5.53v-.922l4.608-4.608zm.922 4.608v.922h-.922l.922-.922zM35.255 36.176h.921l-5.529 5.53v-.922l4.608-4.608zm.921 4.608v.922h-.921l.921-.922z"/><path d="M40.784 36.176h.922l-5.53 5.53v-.922l4.608-4.608zm.922 4.608v.922h-.922l.922-.922z"/><path d="M46.314 36.176h.921l-5.53 5.53v-.922l4.609-4.608zm.921 4.608v.922h-.921l.921-.922zM51.843 36.176h.922l-5.53 5.53v-.922l4.608-4.608zm.922 4.608v.922h-.922l.922-.922z"/><path d="M57.373 36.176h.921l-5.53 5.53v-.922l4.609-4.608zm.921 4.608v.922h-.921l.921-.922zM62.902 36.176h.922l-5.53 5.53v-.922l4.608-4.608zm.922 4.608v.922h-.922l.922-.922z"/><path d="M68.431 36.176h.922l-5.53 5.53v-.922l4.608-4.608zm.922 4.608v.922h-.922l.922-.922z"/><path d="M73.96 36.176h.922l-5.53 5.53v-.922l4.609-4.608zm.922 4.608v.922h-.921l.921-.922zM79.49 36.176h.922l-5.53 5.53v-.922l4.608-4.608zm.922 4.608v.922h-.922l.922-.922z"/><path d="M85.02 36.176h.921l-5.53 5.53v-.922l4.609-4.608zm.921 4.608v.922h-.921l.921-.922zM90.549 36.176h.922l-5.53 5.53v-.922l4.608-4.608zm.922 4.608v.922h-.922l.922-.922z"/><path d="M96.078 36.176H97l-5.53 5.53v-.922l4.608-4.608zM97 40.784v.922h-.922l.922-.922zM7.608 41.706h.921L3 47.236v-.922l4.608-4.608zm.921 4.608v.921h-.921l.921-.921zM13.137 41.706h.922l-5.53 5.53v-.922l4.608-4.608zm.922 4.608v.921h-.922l.922-.921z"/><path d="M18.667 41.706h.921l-5.53 5.53v-.922l4.609-4.608zm.921 4.608v.921h-.921l.921-.921zM24.196 41.706h.922l-5.53 5.53v-.922l4.608-4.608zm.922 4.608v.921h-.922l.922-.921z"/><path d="M29.725 41.706h.922l-5.53 5.53v-.922l4.608-4.608zm.922 4.608v.921h-.922l.922-.921zM35.255 41.706h.921l-5.529 5.53v-.922l4.608-4.608zm.921 4.608v.921h-.921l.921-.921z"/><path d="M40.784 41.706h.922l-5.53 5.53v-.922l4.608-4.608zm.922 4.608v.921h-.922l.922-.921z"/><path d="M46.314 41.706h.921l-5.53 5.53v-.922l4.609-4.608zm.921 4.608v.921h-.921l.921-.921zM51.843 41.706h.922l-5.53 5.53v-.922l4.608-4.608zm.922 4.608v.921h-.922l.922-.921z"/><path d="M57.373 41.706h.921l-5.53 5.53v-.922l4.609-4.608zm.921 4.608v.921h-.921l.921-.921zM62.902 41.706h.922l-5.53 5.53v-.922l4.608-4.608zm.922 4.608v.921h-.922l.922-.921z"/><path d="M68.431 41.706h.922l-5.53 5.53v-.922l4.608-4.608zm.922 4.608v.921h-.922l.922-.921z"/><path d="M73.96 41.706h.922l-5.53 5.53v-.922l4.609-4.608zm.922 4.608v.921h-.921l.921-.921zM79.49 41.706h.922l-5.53 5.53v-.922l4.608-4.608zm.922 4.608v.921h-.922l.922-.921z"/><path d="M85.02 41.706h.921l-5.53 5.53v-.922l4.609-4.608zm.921 4.608v.921h-.921l.921-.921zM90.549 41.706h.922l-5.53 5.53v-.922l4.608-4.608zm.922 4.608v.921h-.922l.922-.921z"/><path d="M96.078 41.706H97l-5.53 5.53v-.922l4.608-4.608zM97 46.314v.921h-.922l.922-.921zM7.608 47.235h.921L3 52.765v-.922l4.608-4.608zm.921 4.608v.922h-.921l.921-.922zM13.137 47.235h.922l-5.53 5.53v-.922l4.608-4.608zm.922 4.608v.922h-.922l.922-.922z"/><path d="M18.667 47.235h.921l-5.53 5.53v-.922l4.609-4.608zm.921 4.608v.922h-.921l.921-.922zM24.196 47.235h.922l-5.53 5.53v-.922l4.608-4.608zm.922 4.608v.922h-.922l.922-.922z"/><path d="M29.725 47.235h.922l-5.53 5.53v-.922l4.608-4.608zm.922 4.608v.922h-.922l.922-.922zM35.255 47.235h.921l-5.529 5.53v-.922l4.608-4.608zm.921 4.608v.922h-.921l.921-.922z"/><path d="M40.784 47.235h.922l-5.53 5.53v-.922l4.608-4.608zm.922 4.608v.922h-.922l.922-.922z"/><path d="M46.314 47.235h.921l-5.53 5.53v-.922l4.609-4.608zm.921 4.608v.922h-.921l.921-.922zM51.843 47.235h.922l-5.53 5.53v-.922l4.608-4.608zm.922 4.608v.922h-.922l.922-.922z"/><path d="M57.373 47.235h.921l-5.53 5.53v-.922l4.609-4.608zm.921 4.608v.922h-.921l.921-.922zM62.902 47.235h.922l-5.53 5.53v-.922l4.608-4.608zm.922 4.608v.922h-.922l.922-.922z"/><path d="M68.431 47.235h.922l-5.53 5.53v-.922l4.608-4.608zm.922 4.608v.922h-.922l.922-.922z"/><path d="M73.96 47.235h.922l-5.53 5.53v-.922l4.609-4.608zm.922 4.608v.922h-.921l.921-.922zM79.49 47.235h.922l-5.53 5.53v-.922l4.608-4.608zm.922 4.608v.922h-.922l.922-.922z"/><path d="M85.02 47.235h.921l-5.53 5.53v-.922l4.609-4.608zm.921 4.608v.922h-.921l.921-.922zM90.549 47.235h.922l-5.53 5.53v-.922l4.608-4.608zm.922 4.608v.922h-.922l.922-.922z"/><path d="M96.078 47.235H97l-5.53 5.53v-.922l4.608-4.608zM97 51.843v.922h-.922l.922-.922zM7.608 52.765h.921L3 58.295v-.922l4.608-4.608zm.921 4.608v.921h-.921l.921-.921zM13.137 52.765h.922l-5.53 5.53v-.922l4.608-4.608zm.922 4.608v.921h-.922l.922-.921z"/><path d="M18.667 52.765h.921l-5.53 5.53v-.922l4.609-4.608zm.921 4.608v.921h-.921l.921-.921zM24.196 52.765h.922l-5.53 5.53v-.922l4.608-4.608zm.922 4.608v.921h-.922l.922-.921z"/><path d="M29.725 52.765h.922l-5.53 5.53v-.922l4.608-4.608zm.922 4.608v.921h-.922l.922-.921zM35.255 52.765h.921l-5.529 5.53v-.922l4.608-4.608zm.921 4.608v.921h-.921l.921-.921z"/><path d="M40.784 52.765h.922l-5.53 5.53v-.922l4.608-4.608zm.922 4.608v.921h-.922l.922-.921z"/><path d="M46.314 52.765h.921l-5.53 5.53v-.922l4.609-4.608zm.921 4.608v.921h-.921l.921-.921zM51.843 52.765h.922l-5.53 5.53v-.922l4.608-4.608zm.922 4.608v.921h-.922l.922-.921z"/><path d="M57.373 52.765h.921l-5.53 5.53v-.922l4.609-4.608zm.921 4.608v.921h-.921l.921-.921zM62.902 52.765h.922l-5.53 5.53v-.922l4.608-4.608zm.922 4.608v.921h-.922l.922-.921z"/><path d="M68.431 52.765h.922l-5.53 5.53v-.922l4.608-4.608zm.922 4.608v.921h-.922l.922-.921z"/><path d="M73.96 52.765h.922l-5.53 5.53v-.922l4.609-4.608zm.922 4.608v.921h-.921l.921-.921zM79.49 52.765h.922l-5.53 5.53v-.922l4.608-4.608zm.922 4.608v.921h-.922l.922-.921z"/><path d="M85.02 52.765h.921l-5.53 5.53v-.922l4.609-4.608zm.921 4.608v.921h-.921l.921-.921zM90.549 52.765h.922l-5.53 5.53v-.922l4.608-4.608zm.922 4.608v.921h-.922l.922-.921z"/><path d="M96.078 52.765H97l-5.53 5.53v-.922l4.608-4.608zM97 57.373v.921h-.922l.922-.921zM7.608 58.294h.921L3 63.824v-.922l4.608-4.608zm.921 4.608v.922h-.921l.921-.922zM13.137 58.294h.922l-5.53 5.53v-.922l4.608-4.608zm.922 4.608v.922h-.922l.922-.922z"/><path d="M18.667 58.294h.921l-5.53 5.53v-.922l4.609-4.608zm.921 4.608v.922h-.921l.921-.922zM24.196 58.294h.922l-5.53 5.53v-.922l4.608-4.608zm.922 4.608v.922h-.922l.922-.922z"/><path d="M29.725 58.294h.922l-5.53 5.53v-.922l4.608-4.608zm.922 4.608v.922h-.922l.922-.922zM35.255 58.294h.921l-5.529 5.53v-.922l4.608-4.608zm.921 4.608v.922h-.921l.921-.922z"/><path d="M40.784 58.294h.922l-5.53 5.53v-.922l4.608-4.608zm.922 4.608v.922h-.922l.922-.922z"/><path d="M46.314 58.294h.921l-5.53 5.53v-.922l4.609-4.608zm.921 4.608v.922h-.921l.921-.922zM51.843 58.294h.922l-5.53 5.53v-.922l4.608-4.608zm.922 4.608v.922h-.922l.922-.922z"/><path d="M57.373 58.294h.921l-5.53 5.53v-.922l4.609-4.608zm.921 4.608v.922h-.921l.921-.922zM62.902 58.294h.922l-5.53 5.53v-.922l4.608-4.608zm.922 4.608v.922h-.922l.922-.922z"/><path d="M68.431 58.294h.922l-5.53 5.53v-.922l4.608-4.608zm.922 4.608v.922h-.922l.922-.922z"/><path d="M73.96 58.294h.922l-5.53 5.53v-.922l4.609-4.608zm.922 4.608v.922h-.921l.921-.922zM79.49 58.294h.922l-5.53 5.53v-.922l4.608-4.608zm.922 4.608v.922h-.922l.922-.922z"/><path d="M85.02 58.294h.921l-5.53 5.53v-.922l4.609-4.608zm.921 4.608v.922h-.921l.921-.922zM90.549 58.294h.922l-5.53 5.53v-.922l4.608-4.608zm.922 4.608v.922h-.922l.922-.922z"/><path d="M96.078 58.294H97l-5.53 5.53v-.922l4.608-4.608zM97 62.902v.922h-.922l.922-.922zM7.608 63.824h.921L3 69.353v-.922l4.608-4.607zm.921 4.607v.922h-.921l.921-.922zM13.137 63.824h.922l-5.53 5.529v-.922l4.608-4.607zm.922 4.607v.922h-.922l.922-.922z"/><path d="M18.667 63.824h.921l-5.53 5.529v-.922l4.609-4.607zm.921 4.607v.922h-.921l.921-.922zM24.196 63.824h.922l-5.53 5.529v-.922l4.608-4.607zm.922 4.607v.922h-.922l.922-.922z"/><path d="M29.725 63.824h.922l-5.53 5.529v-.922l4.608-4.607zm.922 4.607v.922h-.922l.922-.922zM35.255 63.824h.921l-5.529 5.529v-.922l4.608-4.607zm.921 4.607v.922h-.921l.921-.922z"/><path d="M40.784 63.824h.922l-5.53 5.529v-.922l4.608-4.607zm.922 4.607v.922h-.922l.922-.922z"/><path d="M46.314 63.824h.921l-5.53 5.529v-.922l4.609-4.607zm.921 4.607v.922h-.921l.921-.922zM51.843 63.824h.922l-5.53 5.529v-.922l4.608-4.607zm.922 4.607v.922h-.922l.922-.922z"/><path d="M57.373 63.824h.921l-5.53 5.529v-.922l4.609-4.607zm.921 4.607v.922h-.921l.921-.922zM62.902 63.824h.922l-5.53 5.529v-.922l4.608-4.607zm.922 4.607v.922h-.922l.922-.922z"/><path d="M68.431 63.824h.922l-5.53 5.529v-.922l4.608-4.607zm.922 4.607v.922h-.922l.922-.922z"/><path d="M73.96 63.824h.922l-5.53 5.529v-.922l4.609-4.607zm.922 4.607v.922h-.921l.921-.922zM79.49 63.824h.922l-5.53 5.529v-.922l4.608-4.607zm.922 4.607v.922h-.922l.922-.922z"/><path d="M85.02 63.824h.921l-5.53 5.529v-.922l4.609-4.607zm.921 4.607v.922h-.921l.921-.922zM90.549 63.824h.922l-5.53 5.529v-.922l4.608-4.607zm.922 4.607v.922h-.922l.922-.922z"/><path d="M96.078 63.824H97l-5.53 5.529v-.922l4.608-4.607zM97 68.43v.922h-.922L97 68.43zM7.608 69.353h.921L3 74.883v-.922l4.608-4.608zm.921 4.608v.921h-.921l.921-.921zM13.137 69.353h.922l-5.53 5.53v-.922l4.608-4.608zm.922 4.608v.921h-.922l.922-.921z"/><path d="M18.667 69.353h.921l-5.53 5.53v-.922l4.609-4.608zm.921 4.608v.921h-.921l.921-.921zM24.196 69.353h.922l-5.53 5.53v-.922l4.608-4.608zm.922 4.608v.921h-.922l.922-.921z"/><path d="M29.725 69.353h.922l-5.53 5.53v-.922l4.608-4.608zm.922 4.608v.921h-.922l.922-.921zM35.255 69.353h.921l-5.529 5.53v-.922l4.608-4.608zm.921 4.608v.921h-.921l.921-.921z"/><path d="M40.784 69.353h.922l-5.53 5.53v-.922l4.608-4.608zm.922 4.608v.921h-.922l.922-.921z"/><path d="M46.314 69.353h.921l-5.53 5.53v-.922l4.609-4.608zm.921 4.608v.921h-.921l.921-.921zM51.843 69.353h.922l-5.53 5.53v-.922l4.608-4.608zm.922 4.608v.921h-.922l.922-.921z"/><path d="M57.373 69.353h.921l-5.53 5.53v-.922l4.609-4.608zm.921 4.608v.921h-.921l.921-.921zM62.902 69.353h.922l-5.53 5.53v-.922l4.608-4.608zm.922 4.608v.921h-.922l.922-.921z"/><path d="M68.431 69.353h.922l-5.53 5.53v-.922l4.608-4.608zm.922 4.608v.921h-.922l.922-.921z"/><path d="M73.96 69.353h.922l-5.53 5.53v-.922l4.609-4.608zm.922 4.608v.921h-.921l.921-.921zM79.49 69.353h.922l-5.53 5.53v-.922l4.608-4.608zm.922 4.608v.921h-.922l.922-.921z"/><path d="M85.02 69.353h.921l-5.53 5.53v-.922l4.609-4.608zm.921 4.608v.921h-.921l.921-.921zM90.549 69.353h.922l-5.53 5.53v-.922l4.608-4.608zm.922 4.608v.921h-.922l.922-.921z"/><path d="M96.078 69.353H97l-5.53 5.53v-.922l4.608-4.608zM97 73.96v.921h-.922l.922-.921zM7.608 74.882h.921L3 80.412v-.922l4.608-4.608zm.921 4.608v.922h-.921l.921-.922zM13.137 74.882h.922l-5.53 5.53v-.922l4.608-4.608zm.922 4.608v.922h-.922l.922-.922z"/><path d="M18.667 74.882h.921l-5.53 5.53v-.922l4.609-4.608zm.921 4.608v.922h-.921l.921-.922zM24.196 74.882h.922l-5.53 5.53v-.922l4.608-4.608zm.922 4.608v.922h-.922l.922-.922z"/><path d="M29.725 74.882h.922l-5.53 5.53v-.922l4.608-4.608zm.922 4.608v.922h-.922l.922-.922zM35.255 74.882h.921l-5.529 5.53v-.922l4.608-4.608zm.921 4.608v.922h-.921l.921-.922z"/><path d="M40.784 74.882h.922l-5.53 5.53v-.922l4.608-4.608zm.922 4.608v.922h-.922l.922-.922z"/><path d="M46.314 74.882h.921l-5.53 5.53v-.922l4.609-4.608zm.921 4.608v.922h-.921l.921-.922zM51.843 74.882h.922l-5.53 5.53v-.922l4.608-4.608zm.922 4.608v.922h-.922l.922-.922z"/><path d="M57.373 74.882h.921l-5.53 5.53v-.922l4.609-4.608zm.921 4.608v.922h-.921l.921-.922zM62.902 74.882h.922l-5.53 5.53v-.922l4.608-4.608zm.922 4.608v.922h-.922l.922-.922z"/><path d="M68.431 74.882h.922l-5.53 5.53v-.922l4.608-4.608zm.922 4.608v.922h-.922l.922-.922z"/><path d="M73.96 74.882h.922l-5.53 5.53v-.922l4.609-4.608zm.922 4.608v.922h-.921l.921-.922zM79.49 74.882h.922l-5.53 5.53v-.922l4.608-4.608zm.922 4.608v.922h-.922l.922-.922z"/><path d="M85.02 74.882h.921l-5.53 5.53v-.922l4.609-4.608zm.921 4.608v.922h-.921l.921-.922zM90.549 74.882h.922l-5.53 5.53v-.922l4.608-4.608zm.922 4.608v.922h-.922l.922-.922z"/><path d="M96.078 74.882H97l-5.53 5.53v-.922l4.608-4.608zM97 79.49v.922h-.922L97 79.49zM7.608 80.412h.921L3 85.942v-.922l4.608-4.608zm.921 4.608v.921h-.921l.921-.921zM13.137 80.412h.922l-5.53 5.53v-.922l4.608-4.608zm.922 4.608v.921h-.922l.922-.921z"/><path d="M18.667 80.412h.921l-5.53 5.53v-.922l4.609-4.608zm.921 4.608v.921h-.921l.921-.921zM24.196 80.412h.922l-5.53 5.53v-.922l4.608-4.608zm.922 4.608v.921h-.922l.922-.921z"/><path d="M29.725 80.412h.922l-5.53 5.53v-.922l4.608-4.608zm.922 4.608v.921h-.922l.922-.921zM35.255 80.412h.921l-5.529 5.53v-.922l4.608-4.608zm.921 4.608v.921h-.921l.921-.921z"/><path d="M40.784 80.412h.922l-5.53 5.53v-.922l4.608-4.608zm.922 4.608v.921h-.922l.922-.921z"/><path d="M46.314 80.412h.921l-5.53 5.53v-.922l4.609-4.608zm.921 4.608v.921h-.921l.921-.921zM51.843 80.412h.922l-5.53 5.53v-.922l4.608-4.608zm.922 4.608v.921h-.922l.922-.921z"/><path d="M57.373 80.412h.921l-5.53 5.53v-.922l4.609-4.608zm.921 4.608v.921h-.921l.921-.921zM62.902 80.412h.922l-5.53 5.53v-.922l4.608-4.608zm.922 4.608v.921h-.922l.922-.921z"/><path d="M68.431 80.412h.922l-5.53 5.53v-.922l4.608-4.608zm.922 4.608v.921h-.922l.922-.921z"/><path d="M73.96 80.412h.922l-5.53 5.53v-.922l4.609-4.608zm.922 4.608v.921h-.921l.921-.921zM79.49 80.412h.922l-5.53 5.53v-.922l4.608-4.608zm.922 4.608v.921h-.922l.922-.921z"/><path d="M85.02 80.412h.921l-5.53 5.53v-.922l4.609-4.608zm.921 4.608v.921h-.921l.921-.921zM90.549 80.412h.922l-5.53 5.53v-.922l4.608-4.608zm.922 4.608v.921h-.922l.922-.921z"/><path d="M96.078 80.412H97l-5.53 5.53v-.922l4.608-4.608zM97 85.02v.921h-.922L97 85.02zM7.608 85.941h.921L3 91.471v-.922l4.608-4.608zm.921 4.608v.922h-.921l.921-.922zM13.137 85.941h.922l-5.53 5.53v-.922l4.608-4.608zm.922 4.608v.922h-.922l.922-.922z"/><path d="M18.667 85.941h.921l-5.53 5.53v-.922l4.609-4.608zm.921 4.608v.922h-.921l.921-.922zM24.196 85.941h.922l-5.53 5.53v-.922l4.608-4.608zm.922 4.608v.922h-.922l.922-.922z"/><path d="M29.725 85.941h.922l-5.53 5.53v-.922l4.608-4.608zm.922 4.608v.922h-.922l.922-.922zM35.255 85.941h.921l-5.529 5.53v-.922l4.608-4.608zm.921 4.608v.922h-.921l.921-.922z"/><path d="M40.784 85.941h.922l-5.53 5.53v-.922l4.608-4.608zm.922 4.608v.922h-.922l.922-.922z"/><path d="M46.314 85.941h.921l-5.53 5.53v-.922l4.609-4.608zm.921 4.608v.922h-.921l.921-.922zM51.843 85.941h.922l-5.53 5.53v-.922l4.608-4.608zm.922 4.608v.922h-.922l.922-.922z"/><path d="M57.373 85.941h.921l-5.53 5.53v-.922l4.609-4.608zm.921 4.608v.922h-.921l.921-.922zM62.902 85.941h.922l-5.53 5.53v-.922l4.608-4.608zm.922 4.608v.922h-.922l.922-.922z"/><path d="M68.431 85.941h.922l-5.53 5.53v-.922l4.608-4.608zm.922 4.608v.922h-.922l.922-.922z"/><path d="M73.96 85.941h.922l-5.53 5.53v-.922l4.609-4.608zm.922 4.608v.922h-.921l.921-.922zM79.49 85.941h.922l-5.53 5.53v-.922l4.608-4.608zm.922 4.608v.922h-.922l.922-.922z"/><path d="M85.02 85.941h.921l-5.53 5.53v-.922l4.609-4.608zm.921 4.608v.922h-.921l.921-.922zM90.549 85.941h.922l-5.53 5.53v-.922l4.608-4.608zm.922 4.608v.922h-.922l.922-.922z"/><path d="M96.078 85.941H97l-5.53 5.53v-.922l4.608-4.608zM97 90.55v.922h-.922l.922-.922zM7.608 91.47h.921L3 97v-.922l4.608-4.607zm.921 4.608V97h-.921l.921-.922zM13.137 91.47h.922L8.529 97v-.922l4.608-4.607zm.922 4.608V97h-.922l.922-.922z"/><path d="M18.667 91.47h.921L14.058 97v-.922l4.609-4.607zm.921 4.608V97h-.921l.921-.922zM24.196 91.47h.922L19.588 97v-.922l4.608-4.607zm.922 4.608V97h-.922l.922-.922z"/><path d="M29.725 91.47h.922L25.117 97v-.922l4.608-4.607zm.922 4.608V97h-.922l.922-.922z"/><path d="M35.255 91.47h.921L30.647 97v-.922l4.608-4.607zm.921 4.608V97h-.921l.921-.922zM40.784 91.47h.922L36.176 97v-.922l4.608-4.607zm.922 4.608V97h-.922l.922-.922z"/><path d="M46.314 91.47h.921L41.705 97v-.922l4.609-4.607zm.921 4.608V97h-.921l.921-.922zM51.843 91.47h.922L47.235 97v-.922l4.608-4.607zm.922 4.608V97h-.922l.922-.922z"/><path d="M57.373 91.47h.921L52.764 97v-.922l4.609-4.607zm.921 4.608V97h-.921l.921-.922zM62.902 91.47h.922L58.294 97v-.922l4.608-4.607zm.922 4.608V97h-.922l.922-.922z"/><path d="M68.431 91.47h.922L63.823 97v-.922l4.608-4.607zm.922 4.608V97h-.922l.922-.922z"/><path d="M73.96 91.47h.922L69.352 97v-.922l4.609-4.607zm.922 4.608V97h-.921l.921-.922zM79.49 91.47h.922L74.882 97v-.922l4.608-4.607zm.922 4.608V97h-.922l.922-.922z"/><path d="M85.02 91.47h.921L80.411 97v-.922l4.609-4.607zm.921 4.608V97h-.921l.921-.922z"/><path d="M90.549 91.47h.922L85.94 97v-.922l4.608-4.607zm.922 4.608V97h-.922l.922-.922z"/><path d="M96.078 91.47H97L91.47 97v-.922l4.608-4.607zM97 96.079V97h-.922l.922-.922z"/></g></svg>