<svg width="100" height="100" xmlns="http://www.w3.org/2000/svg"><g fill="#565D66" fill-rule="nonzero"><path d="M5 27.5V16.25L16.25 5H27.5L5 27.5zm22.5 0H16.25L27.5 16.25V27.5zM27.5 27.5V16.25L38.75 5H50L27.5 27.5zm22.5 0H38.75L50 16.25V27.5zM50 27.5V16.25L61.25 5H72.5L50 27.5zm22.5 0H61.25L72.5 16.25V27.5zM72.5 27.5V16.25L83.75 5H95L72.5 27.5zm22.5 0H83.75L95 16.25V27.5z"/><g><path d="M5 50V38.75L16.25 27.5H27.5L5 50zm22.5 0H16.25L27.5 38.75V50zM27.5 50V38.75L38.75 27.5H50L27.5 50zM50 50H38.75L50 38.75V50zM50 50V38.75L61.25 27.5H72.5L50 50zm22.5 0H61.25L72.5 38.75V50zM72.5 50V38.75L83.75 27.5H95L72.5 50zM95 50H83.75L95 38.75V50z"/></g><g><path d="M5 72.5V61.25L16.25 50H27.5L5 72.5zm22.5 0H16.25L27.5 61.25V72.5zM27.5 72.5V61.25L38.75 50H50L27.5 72.5zm22.5 0H38.75L50 61.25V72.5zM50 72.5V61.25L61.25 50H72.5L50 72.5zm22.5 0H61.25L72.5 61.25V72.5zM72.5 72.5V61.25L83.75 50H95L72.5 72.5zm22.5 0H83.75L95 61.25V72.5z"/></g><g><path d="M5 95V83.75L16.25 72.5H27.5L5 95zm22.5 0H16.25L27.5 83.75V95zM27.5 95V83.75L38.75 72.5H50L27.5 95zM50 95H38.75L50 83.75V95zM50 95V83.75L61.25 72.5H72.5L50 95zm22.5 0H61.25L72.5 83.75V95zM72.5 95V83.75L83.75 72.5H95L72.5 95zM95 95H83.75L95 83.75V95z"/></g></g></svg>