<svg width="100" height="100" xmlns="http://www.w3.org/2000/svg"><g fill="#565D66" fill-rule="nonzero"><path d="M3 3.534C3 3.239 3.261 3 3.589 3c.325 0 .589.243.589.534v2.163c0 .295-.261.534-.589.534-.325 0-.589-.243-.589-.534V3.534zm3.534 4.308c0-.295.261-.534.589-.534.325 0 .589.243.589.534v2.164c0 .294-.262.533-.59.533-.324 0-.588-.243-.588-.533V7.842zM10.068 3.534c0-.295.261-.534.589-.534.325 0 .589.243.589.534v2.163c0 .295-.262.534-.59.534-.324 0-.588-.243-.588-.534V3.534zm3.534 4.308c0-.295.261-.534.589-.534.325 0 .589.243.589.534v2.164c0 .294-.262.533-.59.533-.325 0-.588-.243-.588-.533V7.842zM17.136 3.534c0-.295.261-.534.589-.534.325 0 .589.243.589.534v2.163c0 .295-.262.534-.59.534-.325 0-.588-.243-.588-.534V3.534zm3.534 4.308c0-.295.261-.534.589-.534.325 0 .589.243.589.534v2.164c0 .294-.262.533-.59.533-.325 0-.588-.243-.588-.533V7.842zM24.204 3.534c0-.295.261-.534.589-.534.325 0 .589.243.589.534v2.163c0 .295-.262.534-.59.534-.325 0-.588-.243-.588-.534V3.534zm3.533 4.308c0-.295.262-.534.59-.534.325 0 .588.243.588.534v2.164c0 .294-.261.533-.589.533-.325 0-.589-.243-.589-.533V7.842zM31.271 3.534c0-.295.262-.534.59-.534.325 0 .588.243.588.534v2.163c0 .295-.261.534-.589.534-.325 0-.589-.243-.589-.534V3.534zm3.534 4.308c0-.295.262-.534.59-.534.325 0 .588.243.588.534v2.164c0 .294-.261.533-.589.533-.325 0-.589-.243-.589-.533V7.842zM38.34 3.534c0-.295.26-.534.588-.534.326 0 .59.243.59.534v2.163c0 .295-.262.534-.59.534-.325 0-.589-.243-.589-.534V3.534zm3.533 4.308c0-.295.262-.534.59-.534.324 0 .588.243.588.534v2.164c0 .294-.261.533-.589.533-.325 0-.589-.243-.589-.533V7.842zM45.407 3.534c0-.295.262-.534.59-.534.324 0 .588.243.588.534v2.163c0 .295-.261.534-.589.534-.325 0-.589-.243-.589-.534V3.534zm3.534 4.308c0-.295.261-.534.589-.534.325 0 .589.243.589.534v2.164c0 .294-.261.533-.589.533-.325 0-.589-.243-.589-.533V7.842zM52.475 3.534c0-.295.261-.534.589-.534.325 0 .589.243.589.534v2.163c0 .295-.261.534-.589.534-.325 0-.589-.243-.589-.534V3.534zm3.534 4.308c0-.295.261-.534.589-.534.325 0 .589.243.589.534v2.164c0 .294-.262.533-.59.533-.324 0-.588-.243-.588-.533V7.842zM59.543 3.534c0-.295.261-.534.589-.534.325 0 .589.243.589.534v2.163c0 .295-.262.534-.59.534-.324 0-.588-.243-.588-.534V3.534zm3.534 4.308c0-.295.261-.534.589-.534.325 0 .589.243.589.534v2.164c0 .294-.262.533-.59.533-.325 0-.588-.243-.588-.533V7.842zM66.61 3.534c0-.295.262-.534.59-.534.325 0 .589.243.589.534v2.163c0 .295-.262.534-.59.534-.325 0-.588-.243-.588-.534V3.534zm3.535 4.308c0-.295.261-.534.589-.534.325 0 .589.243.589.534v2.164c0 .294-.262.533-.59.533-.325 0-.588-.243-.588-.533V7.842zM73.679 3.534c0-.295.261-.534.589-.534.325 0 .589.243.589.534v2.163c0 .295-.262.534-.59.534-.325 0-.588-.243-.588-.534V3.534zm3.533 4.308c0-.295.262-.534.59-.534.325 0 .588.243.588.534v2.164c0 .294-.261.533-.589.533-.325 0-.589-.243-.589-.533V7.842zM80.746 3.534c0-.295.262-.534.59-.534.325 0 .588.243.588.534v2.163c0 .295-.261.534-.589.534-.325 0-.589-.243-.589-.534V3.534zm3.534 4.308c0-.295.262-.534.59-.534.325 0 .588.243.588.534v2.164c0 .294-.261.533-.589.533-.325 0-.589-.243-.589-.533V7.842zM87.814 3.534c0-.295.262-.534.59-.534.325 0 .588.243.588.534v2.163c0 .295-.261.534-.589.534-.325 0-.589-.243-.589-.534V3.534zm3.534 4.308c0-.295.262-.534.59-.534.324 0 .588.243.588.534v2.164c0 .294-.261.533-.589.533-.325 0-.589-.243-.589-.533V7.842zM94.882 3.534c0-.295.262-.534.59-.534.324 0 .588.243.588.534v2.163c0 .295-.261.534-.589.534-.325 0-.589-.243-.589-.534V3.534zM3 13.09c0-.295.261-.534.589-.534.325 0 .589.243.589.533v2.164c0 .295-.261.534-.589.534-.325 0-.589-.243-.589-.534V13.09zm3.534 4.307c0-.294.261-.533.589-.533.325 0 .589.243.589.533v2.164c0 .295-.262.534-.59.534-.324 0-.588-.243-.588-.534v-2.164zM10.068 13.09c0-.295.261-.534.589-.534.325 0 .589.243.589.533v2.164c0 .295-.262.534-.59.534-.324 0-.588-.243-.588-.534V13.09zm3.534 4.307c0-.294.261-.533.589-.533.325 0 .589.243.589.533v2.164c0 .295-.262.534-.59.534-.325 0-.588-.243-.588-.534v-2.164zM17.136 13.09c0-.295.261-.534.589-.534.325 0 .589.243.589.533v2.164c0 .295-.262.534-.59.534-.325 0-.588-.243-.588-.534V13.09zm3.534 4.307c0-.294.261-.533.589-.533.325 0 .589.243.589.533v2.164c0 .295-.262.534-.59.534-.325 0-.588-.243-.588-.534v-2.164zM24.204 13.09c0-.295.261-.534.589-.534.325 0 .589.243.589.533v2.164c0 .295-.262.534-.59.534-.325 0-.588-.243-.588-.534V13.09zm3.533 4.307c0-.294.262-.533.59-.533.325 0 .588.243.588.533v2.164c0 .295-.261.534-.589.534-.325 0-.589-.243-.589-.534v-2.164zM31.271 13.09c0-.295.262-.534.59-.534.325 0 .588.243.588.533v2.164c0 .295-.261.534-.589.534-.325 0-.589-.243-.589-.534V13.09zm3.534 4.307c0-.294.262-.533.59-.533.325 0 .588.243.588.533v2.164c0 .295-.261.534-.589.534-.325 0-.589-.243-.589-.534v-2.164zM38.34 13.09c0-.295.26-.534.588-.534.326 0 .59.243.59.533v2.164c0 .295-.262.534-.59.534-.325 0-.589-.243-.589-.534V13.09zm3.533 4.307c0-.294.262-.533.59-.533.324 0 .588.243.588.533v2.164c0 .295-.261.534-.589.534-.325 0-.589-.243-.589-.534v-2.164zM45.407 13.09c0-.295.262-.534.59-.534.324 0 .588.243.588.533v2.164c0 .295-.261.534-.589.534-.325 0-.589-.243-.589-.534V13.09zm3.534 4.307c0-.294.261-.533.589-.533.325 0 .589.243.589.533v2.164c0 .295-.261.534-.589.534-.325 0-.589-.243-.589-.534v-2.164zM52.475 13.09c0-.295.261-.534.589-.534.325 0 .589.243.589.533v2.164c0 .295-.261.534-.589.534-.325 0-.589-.243-.589-.534V13.09zm3.534 4.307c0-.294.261-.533.589-.533.325 0 .589.243.589.533v2.164c0 .295-.262.534-.59.534-.324 0-.588-.243-.588-.534v-2.164zM59.543 13.09c0-.295.261-.534.589-.534.325 0 .589.243.589.533v2.164c0 .295-.262.534-.59.534-.324 0-.588-.243-.588-.534V13.09zm3.534 4.307c0-.294.261-.533.589-.533.325 0 .589.243.589.533v2.164c0 .295-.262.534-.59.534-.325 0-.588-.243-.588-.534v-2.164zM66.61 13.09c0-.295.262-.534.59-.534.325 0 .589.243.589.533v2.164c0 .295-.262.534-.59.534-.325 0-.588-.243-.588-.534V13.09zm3.535 4.307c0-.294.261-.533.589-.533.325 0 .589.243.589.533v2.164c0 .295-.262.534-.59.534-.325 0-.588-.243-.588-.534v-2.164zM73.679 13.09c0-.295.261-.534.589-.534.325 0 .589.243.589.533v2.164c0 .295-.262.534-.59.534-.325 0-.588-.243-.588-.534V13.09zm3.533 4.307c0-.294.262-.533.59-.533.325 0 .588.243.588.533v2.164c0 .295-.261.534-.589.534-.325 0-.589-.243-.589-.534v-2.164zM80.746 13.09c0-.295.262-.534.59-.534.325 0 .588.243.588.533v2.164c0 .295-.261.534-.589.534-.325 0-.589-.243-.589-.534V13.09zm3.534 4.307c0-.294.262-.533.59-.533.325 0 .588.243.588.533v2.164c0 .295-.261.534-.589.534-.325 0-.589-.243-.589-.534v-2.164zM87.814 13.09c0-.295.262-.534.59-.534.325 0 .588.243.588.533v2.164c0 .295-.261.534-.589.534-.325 0-.589-.243-.589-.534V13.09zm3.534 4.307c0-.294.262-.533.59-.533.324 0 .588.243.588.533v2.164c0 .295-.261.534-.589.534-.325 0-.589-.243-.589-.534v-2.164zM94.882 13.09c0-.295.262-.534.59-.534.324 0 .588.243.588.533v2.164c0 .295-.261.534-.589.534-.325 0-.589-.243-.589-.534V13.09zM3 22.645c0-.295.261-.534.589-.534.325 0 .589.243.589.534v2.164c0 .295-.261.534-.589.534-.325 0-.589-.243-.589-.534v-2.164zm3.534 4.308c0-.295.261-.533.589-.533.325 0 .589.242.589.533v2.164c0 .295-.262.534-.59.534-.324 0-.588-.243-.588-.534v-2.164zM10.068 22.645c0-.295.261-.534.589-.534.325 0 .589.243.589.534v2.164c0 .295-.262.534-.59.534-.324 0-.588-.243-.588-.534v-2.164zm3.534 4.308c0-.295.261-.533.589-.533.325 0 .589.242.589.533v2.164c0 .295-.262.534-.59.534-.325 0-.588-.243-.588-.534v-2.164zM17.136 22.645c0-.295.261-.534.589-.534.325 0 .589.243.589.534v2.164c0 .295-.262.534-.59.534-.325 0-.588-.243-.588-.534v-2.164zm3.534 4.308c0-.295.261-.533.589-.533.325 0 .589.242.589.533v2.164c0 .295-.262.534-.59.534-.325 0-.588-.243-.588-.534v-2.164zM24.204 22.645c0-.295.261-.534.589-.534.325 0 .589.243.589.534v2.164c0 .295-.262.534-.59.534-.325 0-.588-.243-.588-.534v-2.164zm3.533 4.308c0-.295.262-.533.59-.533.325 0 .588.242.588.533v2.164c0 .295-.261.534-.589.534-.325 0-.589-.243-.589-.534v-2.164zM31.271 22.645c0-.295.262-.534.59-.534.325 0 .588.243.588.534v2.164c0 .295-.261.534-.589.534-.325 0-.589-.243-.589-.534v-2.164zm3.534 4.308c0-.295.262-.533.59-.533.325 0 .588.242.588.533v2.164c0 .295-.261.534-.589.534-.325 0-.589-.243-.589-.534v-2.164zM38.34 22.645c0-.295.26-.534.588-.534.326 0 .59.243.59.534v2.164c0 .295-.262.534-.59.534-.325 0-.589-.243-.589-.534v-2.164zm3.533 4.308c0-.295.262-.533.59-.533.324 0 .588.242.588.533v2.164c0 .295-.261.534-.589.534-.325 0-.589-.243-.589-.534v-2.164zM45.407 22.645c0-.295.262-.534.59-.534.324 0 .588.243.588.534v2.164c0 .295-.261.534-.589.534-.325 0-.589-.243-.589-.534v-2.164zm3.534 4.308c0-.295.261-.533.589-.533.325 0 .589.242.589.533v2.164c0 .295-.261.534-.589.534-.325 0-.589-.243-.589-.534v-2.164zM52.475 22.645c0-.295.261-.534.589-.534.325 0 .589.243.589.534v2.164c0 .295-.261.534-.589.534-.325 0-.589-.243-.589-.534v-2.164zm3.534 4.308c0-.295.261-.533.589-.533.325 0 .589.242.589.533v2.164c0 .295-.262.534-.59.534-.324 0-.588-.243-.588-.534v-2.164zM59.543 22.645c0-.295.261-.534.589-.534.325 0 .589.243.589.534v2.164c0 .295-.262.534-.59.534-.324 0-.588-.243-.588-.534v-2.164zm3.534 4.308c0-.295.261-.533.589-.533.325 0 .589.242.589.533v2.164c0 .295-.262.534-.59.534-.325 0-.588-.243-.588-.534v-2.164zM66.61 22.645c0-.295.262-.534.59-.534.325 0 .589.243.589.534v2.164c0 .295-.262.534-.59.534-.325 0-.588-.243-.588-.534v-2.164zm3.535 4.308c0-.295.261-.533.589-.533.325 0 .589.242.589.533v2.164c0 .295-.262.534-.59.534-.325 0-.588-.243-.588-.534v-2.164zM73.679 22.645c0-.295.261-.534.589-.534.325 0 .589.243.589.534v2.164c0 .295-.262.534-.59.534-.325 0-.588-.243-.588-.534v-2.164zm3.533 4.308c0-.295.262-.533.59-.533.325 0 .588.242.588.533v2.164c0 .295-.261.534-.589.534-.325 0-.589-.243-.589-.534v-2.164zM80.746 22.645c0-.295.262-.534.59-.534.325 0 .588.243.588.534v2.164c0 .295-.261.534-.589.534-.325 0-.589-.243-.589-.534v-2.164zm3.534 4.308c0-.295.262-.533.59-.533.325 0 .588.242.588.533v2.164c0 .295-.261.534-.589.534-.325 0-.589-.243-.589-.534v-2.164zM87.814 22.645c0-.295.262-.534.59-.534.325 0 .588.243.588.534v2.164c0 .295-.261.534-.589.534-.325 0-.589-.243-.589-.534v-2.164zm3.534 4.308c0-.295.262-.533.59-.533.324 0 .588.242.588.533v2.164c0 .295-.261.534-.589.534-.325 0-.589-.243-.589-.534v-2.164zM94.882 22.645c0-.295.262-.534.59-.534.324 0 .588.243.588.534v2.164c0 .295-.261.534-.589.534-.325 0-.589-.243-.589-.534v-2.164zM3 32.2c0-.294.261-.533.589-.533.325 0 .589.243.589.534v2.164c0 .294-.261.533-.589.533-.325 0-.589-.243-.589-.533V32.2zm3.534 4.309c0-.295.261-.534.589-.534.325 0 .589.243.589.534v2.164c0 .294-.262.533-.59.533-.324 0-.588-.243-.588-.533v-2.164zM10.068 32.2c0-.294.261-.533.589-.533.325 0 .589.243.589.534v2.164c0 .294-.262.533-.59.533-.324 0-.588-.243-.588-.533V32.2zm3.534 4.309c0-.295.261-.534.589-.534.325 0 .589.243.589.534v2.164c0 .294-.262.533-.59.533-.325 0-.588-.243-.588-.533v-2.164zM17.136 32.2c0-.294.261-.533.589-.533.325 0 .589.243.589.534v2.164c0 .294-.262.533-.59.533-.325 0-.588-.243-.588-.533V32.2zm3.534 4.309c0-.295.261-.534.589-.534.325 0 .589.243.589.534v2.164c0 .294-.262.533-.59.533-.325 0-.588-.243-.588-.533v-2.164zM24.204 32.2c0-.294.261-.533.589-.533.325 0 .589.243.589.534v2.164c0 .294-.262.533-.59.533-.325 0-.588-.243-.588-.533V32.2zm3.533 4.309c0-.295.262-.534.59-.534.325 0 .588.243.588.534v2.164c0 .294-.261.533-.589.533-.325 0-.589-.243-.589-.533v-2.164zM31.271 32.2c0-.294.262-.533.59-.533.325 0 .588.243.588.534v2.164c0 .294-.261.533-.589.533-.325 0-.589-.243-.589-.533V32.2zm3.534 4.309c0-.295.262-.534.59-.534.325 0 .588.243.588.534v2.164c0 .294-.261.533-.589.533-.325 0-.589-.243-.589-.533v-2.164zM38.34 32.2c0-.294.26-.533.588-.533.326 0 .59.243.59.534v2.164c0 .294-.262.533-.59.533-.325 0-.589-.243-.589-.533V32.2zm3.533 4.309c0-.295.262-.534.59-.534.324 0 .588.243.588.534v2.164c0 .294-.261.533-.589.533-.325 0-.589-.243-.589-.533v-2.164zM45.407 32.2c0-.294.262-.533.59-.533.324 0 .588.243.588.534v2.164c0 .294-.261.533-.589.533-.325 0-.589-.243-.589-.533V32.2zm3.534 4.309c0-.295.261-.534.589-.534.325 0 .589.243.589.534v2.164c0 .294-.261.533-.589.533-.325 0-.589-.243-.589-.533v-2.164zM52.475 32.2c0-.294.261-.533.589-.533.325 0 .589.243.589.534v2.164c0 .294-.261.533-.589.533-.325 0-.589-.243-.589-.533V32.2zm3.534 4.309c0-.295.261-.534.589-.534.325 0 .589.243.589.534v2.164c0 .294-.262.533-.59.533-.324 0-.588-.243-.588-.533v-2.164zM59.543 32.2c0-.294.261-.533.589-.533.325 0 .589.243.589.534v2.164c0 .294-.262.533-.59.533-.324 0-.588-.243-.588-.533V32.2zm3.534 4.309c0-.295.261-.534.589-.534.325 0 .589.243.589.534v2.164c0 .294-.262.533-.59.533-.325 0-.588-.243-.588-.533v-2.164zM66.61 32.2c0-.294.262-.533.59-.533.325 0 .589.243.589.534v2.164c0 .294-.262.533-.59.533-.325 0-.588-.243-.588-.533V32.2zm3.535 4.309c0-.295.261-.534.589-.534.325 0 .589.243.589.534v2.164c0 .294-.262.533-.59.533-.325 0-.588-.243-.588-.533v-2.164zM73.679 32.2c0-.294.261-.533.589-.533.325 0 .589.243.589.534v2.164c0 .294-.262.533-.59.533-.325 0-.588-.243-.588-.533V32.2zm3.533 4.309c0-.295.262-.534.59-.534.325 0 .588.243.588.534v2.164c0 .294-.261.533-.589.533-.325 0-.589-.243-.589-.533v-2.164zM80.746 32.2c0-.294.262-.533.59-.533.325 0 .588.243.588.534v2.164c0 .294-.261.533-.589.533-.325 0-.589-.243-.589-.533V32.2zm3.534 4.309c0-.295.262-.534.59-.534.325 0 .588.243.588.534v2.164c0 .294-.261.533-.589.533-.325 0-.589-.243-.589-.533v-2.164zM87.814 32.2c0-.294.262-.533.59-.533.325 0 .588.243.588.534v2.164c0 .294-.261.533-.589.533-.325 0-.589-.243-.589-.533V32.2zm3.534 4.309c0-.295.262-.534.59-.534.324 0 .588.243.588.534v2.164c0 .294-.261.533-.589.533-.325 0-.589-.243-.589-.533v-2.164zM94.882 32.2c0-.294.262-.533.59-.533.324 0 .588.243.588.534v2.164c0 .294-.261.533-.589.533-.325 0-.589-.243-.589-.533V32.2zM3 41.757c0-.295.261-.534.589-.534.325 0 .589.243.589.534v2.163c0 .295-.261.534-.589.534-.325 0-.589-.243-.589-.534v-2.163zm3.534 4.308c0-.295.261-.534.589-.534.325 0 .589.243.589.534v2.163c0 .295-.262.534-.59.534-.324 0-.588-.243-.588-.534v-2.163zM10.068 41.757c0-.295.261-.534.589-.534.325 0 .589.243.589.534v2.163c0 .295-.262.534-.59.534-.324 0-.588-.243-.588-.534v-2.163zm3.534 4.308c0-.295.261-.534.589-.534.325 0 .589.243.589.534v2.163c0 .295-.262.534-.59.534-.325 0-.588-.243-.588-.534v-2.163zM17.136 41.757c0-.295.261-.534.589-.534.325 0 .589.243.589.534v2.163c0 .295-.262.534-.59.534-.325 0-.588-.243-.588-.534v-2.163zm3.534 4.308c0-.295.261-.534.589-.534.325 0 .589.243.589.534v2.163c0 .295-.262.534-.59.534-.325 0-.588-.243-.588-.534v-2.163zM24.204 41.757c0-.295.261-.534.589-.534.325 0 .589.243.589.534v2.163c0 .295-.262.534-.59.534-.325 0-.588-.243-.588-.534v-2.163zm3.533 4.308c0-.295.262-.534.59-.534.325 0 .588.243.588.534v2.163c0 .295-.261.534-.589.534-.325 0-.589-.243-.589-.534v-2.163zM31.271 41.757c0-.295.262-.534.59-.534.325 0 .588.243.588.534v2.163c0 .295-.261.534-.589.534-.325 0-.589-.243-.589-.534v-2.163zm3.534 4.308c0-.295.262-.534.59-.534.325 0 .588.243.588.534v2.163c0 .295-.261.534-.589.534-.325 0-.589-.243-.589-.534v-2.163zM38.34 41.757c0-.295.26-.534.588-.534.326 0 .59.243.59.534v2.163c0 .295-.262.534-.59.534-.325 0-.589-.243-.589-.534v-2.163zm3.533 4.308c0-.295.262-.534.59-.534.324 0 .588.243.588.534v2.163c0 .295-.261.534-.589.534-.325 0-.589-.243-.589-.534v-2.163zM45.407 41.757c0-.295.262-.534.59-.534.324 0 .588.243.588.534v2.163c0 .295-.261.534-.589.534-.325 0-.589-.243-.589-.534v-2.163zm3.534 4.308c0-.295.261-.534.589-.534.325 0 .589.243.589.534v2.163c0 .295-.261.534-.589.534-.325 0-.589-.243-.589-.534v-2.163zM52.475 41.757c0-.295.261-.534.589-.534.325 0 .589.243.589.534v2.163c0 .295-.261.534-.589.534-.325 0-.589-.243-.589-.534v-2.163zm3.534 4.308c0-.295.261-.534.589-.534.325 0 .589.243.589.534v2.163c0 .295-.262.534-.59.534-.324 0-.588-.243-.588-.534v-2.163zM59.543 41.757c0-.295.261-.534.589-.534.325 0 .589.243.589.534v2.163c0 .295-.262.534-.59.534-.324 0-.588-.243-.588-.534v-2.163zm3.534 4.308c0-.295.261-.534.589-.534.325 0 .589.243.589.534v2.163c0 .295-.262.534-.59.534-.325 0-.588-.243-.588-.534v-2.163zM66.61 41.757c0-.295.262-.534.59-.534.325 0 .589.243.589.534v2.163c0 .295-.262.534-.59.534-.325 0-.588-.243-.588-.534v-2.163zm3.535 4.308c0-.295.261-.534.589-.534.325 0 .589.243.589.534v2.163c0 .295-.262.534-.59.534-.325 0-.588-.243-.588-.534v-2.163zM73.679 41.757c0-.295.261-.534.589-.534.325 0 .589.243.589.534v2.163c0 .295-.262.534-.59.534-.325 0-.588-.243-.588-.534v-2.163zm3.533 4.308c0-.295.262-.534.59-.534.325 0 .588.243.588.534v2.163c0 .295-.261.534-.589.534-.325 0-.589-.243-.589-.534v-2.163zM80.746 41.757c0-.295.262-.534.59-.534.325 0 .588.243.588.534v2.163c0 .295-.261.534-.589.534-.325 0-.589-.243-.589-.534v-2.163zm3.534 4.308c0-.295.262-.534.59-.534.325 0 .588.243.588.534v2.163c0 .295-.261.534-.589.534-.325 0-.589-.243-.589-.534v-2.163zM87.814 41.757c0-.295.262-.534.59-.534.325 0 .588.243.588.534v2.163c0 .295-.261.534-.589.534-.325 0-.589-.243-.589-.534v-2.163zm3.534 4.308c0-.295.262-.534.59-.534.324 0 .588.243.588.534v2.163c0 .295-.261.534-.589.534-.325 0-.589-.243-.589-.534v-2.163zM94.882 41.757c0-.295.262-.534.59-.534.324 0 .588.243.588.534v2.163c0 .295-.261.534-.589.534-.325 0-.589-.243-.589-.534v-2.163zM3 51.312c0-.294.261-.533.589-.533.325 0 .589.243.589.533v2.164c0 .295-.261.534-.589.534-.325 0-.589-.243-.589-.534v-2.164zm3.534 4.308c0-.294.261-.533.589-.533.325 0 .589.243.589.533v2.164c0 .295-.262.534-.59.534-.324 0-.588-.243-.588-.534V55.62zM10.068 51.312c0-.294.261-.533.589-.533.325 0 .589.243.589.533v2.164c0 .295-.262.534-.59.534-.324 0-.588-.243-.588-.534v-2.164zm3.534 4.308c0-.294.261-.533.589-.533.325 0 .589.243.589.533v2.164c0 .295-.262.534-.59.534-.325 0-.588-.243-.588-.534V55.62zM17.136 51.312c0-.294.261-.533.589-.533.325 0 .589.243.589.533v2.164c0 .295-.262.534-.59.534-.325 0-.588-.243-.588-.534v-2.164zm3.534 4.308c0-.294.261-.533.589-.533.325 0 .589.243.589.533v2.164c0 .295-.262.534-.59.534-.325 0-.588-.243-.588-.534V55.62zM24.204 51.312c0-.294.261-.533.589-.533.325 0 .589.243.589.533v2.164c0 .295-.262.534-.59.534-.325 0-.588-.243-.588-.534v-2.164zm3.533 4.308c0-.294.262-.533.59-.533.325 0 .588.243.588.533v2.164c0 .295-.261.534-.589.534-.325 0-.589-.243-.589-.534V55.62zM31.271 51.312c0-.294.262-.533.59-.533.325 0 .588.243.588.533v2.164c0 .295-.261.534-.589.534-.325 0-.589-.243-.589-.534v-2.164zm3.534 4.308c0-.294.262-.533.59-.533.325 0 .588.243.588.533v2.164c0 .295-.261.534-.589.534-.325 0-.589-.243-.589-.534V55.62zM38.34 51.312c0-.294.26-.533.588-.533.326 0 .59.243.59.533v2.164c0 .295-.262.534-.59.534-.325 0-.589-.243-.589-.534v-2.164zm3.533 4.308c0-.294.262-.533.59-.533.324 0 .588.243.588.533v2.164c0 .295-.261.534-.589.534-.325 0-.589-.243-.589-.534V55.62zM45.407 51.312c0-.294.262-.533.59-.533.324 0 .588.243.588.533v2.164c0 .295-.261.534-.589.534-.325 0-.589-.243-.589-.534v-2.164zm3.534 4.308c0-.294.261-.533.589-.533.325 0 .589.243.589.533v2.164c0 .295-.261.534-.589.534-.325 0-.589-.243-.589-.534V55.62zM52.475 51.312c0-.294.261-.533.589-.533.325 0 .589.243.589.533v2.164c0 .295-.261.534-.589.534-.325 0-.589-.243-.589-.534v-2.164zm3.534 4.308c0-.294.261-.533.589-.533.325 0 .589.243.589.533v2.164c0 .295-.262.534-.59.534-.324 0-.588-.243-.588-.534V55.62zM59.543 51.312c0-.294.261-.533.589-.533.325 0 .589.243.589.533v2.164c0 .295-.262.534-.59.534-.324 0-.588-.243-.588-.534v-2.164zm3.534 4.308c0-.294.261-.533.589-.533.325 0 .589.243.589.533v2.164c0 .295-.262.534-.59.534-.325 0-.588-.243-.588-.534V55.62zM66.61 51.312c0-.294.262-.533.59-.533.325 0 .589.243.589.533v2.164c0 .295-.262.534-.59.534-.325 0-.588-.243-.588-.534v-2.164zm3.535 4.308c0-.294.261-.533.589-.533.325 0 .589.243.589.533v2.164c0 .295-.262.534-.59.534-.325 0-.588-.243-.588-.534V55.62zM73.679 51.312c0-.294.261-.533.589-.533.325 0 .589.243.589.533v2.164c0 .295-.262.534-.59.534-.325 0-.588-.243-.588-.534v-2.164zm3.533 4.308c0-.294.262-.533.59-.533.325 0 .588.243.588.533v2.164c0 .295-.261.534-.589.534-.325 0-.589-.243-.589-.534V55.62zM80.746 51.312c0-.294.262-.533.59-.533.325 0 .588.243.588.533v2.164c0 .295-.261.534-.589.534-.325 0-.589-.243-.589-.534v-2.164zm3.534 4.308c0-.294.262-.533.59-.533.325 0 .588.243.588.533v2.164c0 .295-.261.534-.589.534-.325 0-.589-.243-.589-.534V55.62zM87.814 51.312c0-.294.262-.533.59-.533.325 0 .588.243.588.533v2.164c0 .295-.261.534-.589.534-.325 0-.589-.243-.589-.534v-2.164zm3.534 4.308c0-.294.262-.533.59-.533.324 0 .588.243.588.533v2.164c0 .295-.261.534-.589.534-.325 0-.589-.243-.589-.534V55.62zM94.882 51.312c0-.294.262-.533.59-.533.324 0 .588.243.588.533v2.164c0 .295-.261.534-.589.534-.325 0-.589-.243-.589-.534v-2.164zM3 60.868c0-.295.261-.534.589-.534.325 0 .589.243.589.534v2.164c0 .295-.261.533-.589.533-.325 0-.589-.242-.589-.533v-2.164zm3.534 4.308c0-.295.261-.534.589-.534.325 0 .589.243.589.534v2.164c0 .295-.262.533-.59.533-.324 0-.588-.242-.588-.533v-2.164zM10.068 60.868c0-.295.261-.534.589-.534.325 0 .589.243.589.534v2.164c0 .295-.262.533-.59.533-.324 0-.588-.242-.588-.533v-2.164zm3.534 4.308c0-.295.261-.534.589-.534.325 0 .589.243.589.534v2.164c0 .295-.262.533-.59.533-.325 0-.588-.242-.588-.533v-2.164zM17.136 60.868c0-.295.261-.534.589-.534.325 0 .589.243.589.534v2.164c0 .295-.262.533-.59.533-.325 0-.588-.242-.588-.533v-2.164zm3.534 4.308c0-.295.261-.534.589-.534.325 0 .589.243.589.534v2.164c0 .295-.262.533-.59.533-.325 0-.588-.242-.588-.533v-2.164zM24.204 60.868c0-.295.261-.534.589-.534.325 0 .589.243.589.534v2.164c0 .295-.262.533-.59.533-.325 0-.588-.242-.588-.533v-2.164zm3.533 4.308c0-.295.262-.534.59-.534.325 0 .588.243.588.534v2.164c0 .295-.261.533-.589.533-.325 0-.589-.242-.589-.533v-2.164zM31.271 60.868c0-.295.262-.534.59-.534.325 0 .588.243.588.534v2.164c0 .295-.261.533-.589.533-.325 0-.589-.242-.589-.533v-2.164zm3.534 4.308c0-.295.262-.534.59-.534.325 0 .588.243.588.534v2.164c0 .295-.261.533-.589.533-.325 0-.589-.242-.589-.533v-2.164zM38.34 60.868c0-.295.26-.534.588-.534.326 0 .59.243.59.534v2.164c0 .295-.262.533-.59.533-.325 0-.589-.242-.589-.533v-2.164zm3.533 4.308c0-.295.262-.534.59-.534.324 0 .588.243.588.534v2.164c0 .295-.261.533-.589.533-.325 0-.589-.242-.589-.533v-2.164zM45.407 60.868c0-.295.262-.534.59-.534.324 0 .588.243.588.534v2.164c0 .295-.261.533-.589.533-.325 0-.589-.242-.589-.533v-2.164zm3.534 4.308c0-.295.261-.534.589-.534.325 0 .589.243.589.534v2.164c0 .295-.261.533-.589.533-.325 0-.589-.242-.589-.533v-2.164zM52.475 60.868c0-.295.261-.534.589-.534.325 0 .589.243.589.534v2.164c0 .295-.261.533-.589.533-.325 0-.589-.242-.589-.533v-2.164zm3.534 4.308c0-.295.261-.534.589-.534.325 0 .589.243.589.534v2.164c0 .295-.262.533-.59.533-.324 0-.588-.242-.588-.533v-2.164zM59.543 60.868c0-.295.261-.534.589-.534.325 0 .589.243.589.534v2.164c0 .295-.262.533-.59.533-.324 0-.588-.242-.588-.533v-2.164zm3.534 4.308c0-.295.261-.534.589-.534.325 0 .589.243.589.534v2.164c0 .295-.262.533-.59.533-.325 0-.588-.242-.588-.533v-2.164zM66.61 60.868c0-.295.262-.534.59-.534.325 0 .589.243.589.534v2.164c0 .295-.262.533-.59.533-.325 0-.588-.242-.588-.533v-2.164zm3.535 4.308c0-.295.261-.534.589-.534.325 0 .589.243.589.534v2.164c0 .295-.262.533-.59.533-.325 0-.588-.242-.588-.533v-2.164zM73.679 60.868c0-.295.261-.534.589-.534.325 0 .589.243.589.534v2.164c0 .295-.262.533-.59.533-.325 0-.588-.242-.588-.533v-2.164zm3.533 4.308c0-.295.262-.534.59-.534.325 0 .588.243.588.534v2.164c0 .295-.261.533-.589.533-.325 0-.589-.242-.589-.533v-2.164zM80.746 60.868c0-.295.262-.534.59-.534.325 0 .588.243.588.534v2.164c0 .295-.261.533-.589.533-.325 0-.589-.242-.589-.533v-2.164zm3.534 4.308c0-.295.262-.534.59-.534.325 0 .588.243.588.534v2.164c0 .295-.261.533-.589.533-.325 0-.589-.242-.589-.533v-2.164zM87.814 60.868c0-.295.262-.534.59-.534.325 0 .588.243.588.534v2.164c0 .295-.261.533-.589.533-.325 0-.589-.242-.589-.533v-2.164zm3.534 4.308c0-.295.262-.534.59-.534.324 0 .588.243.588.534v2.164c0 .295-.261.533-.589.533-.325 0-.589-.242-.589-.533v-2.164zM94.882 60.868c0-.295.262-.534.59-.534.324 0 .588.243.588.534v2.164c0 .295-.261.533-.589.533-.325 0-.589-.242-.589-.533v-2.164zM3 70.424c0-.295.261-.534.589-.534.325 0 .589.243.589.534v2.164c0 .294-.261.533-.589.533-.325 0-.589-.243-.589-.533v-2.164zm3.534 4.308c0-.295.261-.534.589-.534.325 0 .589.243.589.534v2.164c0 .294-.262.533-.59.533-.324 0-.588-.243-.588-.533v-2.164zM10.068 70.424c0-.295.261-.534.589-.534.325 0 .589.243.589.534v2.164c0 .294-.262.533-.59.533-.324 0-.588-.243-.588-.533v-2.164zm3.534 4.308c0-.295.261-.534.589-.534.325 0 .589.243.589.534v2.164c0 .294-.262.533-.59.533-.325 0-.588-.243-.588-.533v-2.164zM17.136 70.424c0-.295.261-.534.589-.534.325 0 .589.243.589.534v2.164c0 .294-.262.533-.59.533-.325 0-.588-.243-.588-.533v-2.164zm3.534 4.308c0-.295.261-.534.589-.534.325 0 .589.243.589.534v2.164c0 .294-.262.533-.59.533-.325 0-.588-.243-.588-.533v-2.164zM24.204 70.424c0-.295.261-.534.589-.534.325 0 .589.243.589.534v2.164c0 .294-.262.533-.59.533-.325 0-.588-.243-.588-.533v-2.164zm3.533 4.308c0-.295.262-.534.59-.534.325 0 .588.243.588.534v2.164c0 .294-.261.533-.589.533-.325 0-.589-.243-.589-.533v-2.164zM31.271 70.424c0-.295.262-.534.59-.534.325 0 .588.243.588.534v2.164c0 .294-.261.533-.589.533-.325 0-.589-.243-.589-.533v-2.164zm3.534 4.308c0-.295.262-.534.59-.534.325 0 .588.243.588.534v2.164c0 .294-.261.533-.589.533-.325 0-.589-.243-.589-.533v-2.164zM38.34 70.424c0-.295.26-.534.588-.534.326 0 .59.243.59.534v2.164c0 .294-.262.533-.59.533-.325 0-.589-.243-.589-.533v-2.164zm3.533 4.308c0-.295.262-.534.59-.534.324 0 .588.243.588.534v2.164c0 .294-.261.533-.589.533-.325 0-.589-.243-.589-.533v-2.164zM45.407 70.424c0-.295.262-.534.59-.534.324 0 .588.243.588.534v2.164c0 .294-.261.533-.589.533-.325 0-.589-.243-.589-.533v-2.164zm3.534 4.308c0-.295.261-.534.589-.534.325 0 .589.243.589.534v2.164c0 .294-.261.533-.589.533-.325 0-.589-.243-.589-.533v-2.164zM52.475 70.424c0-.295.261-.534.589-.534.325 0 .589.243.589.534v2.164c0 .294-.261.533-.589.533-.325 0-.589-.243-.589-.533v-2.164zm3.534 4.308c0-.295.261-.534.589-.534.325 0 .589.243.589.534v2.164c0 .294-.262.533-.59.533-.324 0-.588-.243-.588-.533v-2.164zM59.543 70.424c0-.295.261-.534.589-.534.325 0 .589.243.589.534v2.164c0 .294-.262.533-.59.533-.324 0-.588-.243-.588-.533v-2.164zm3.534 4.308c0-.295.261-.534.589-.534.325 0 .589.243.589.534v2.164c0 .294-.262.533-.59.533-.325 0-.588-.243-.588-.533v-2.164zM66.61 70.424c0-.295.262-.534.59-.534.325 0 .589.243.589.534v2.164c0 .294-.262.533-.59.533-.325 0-.588-.243-.588-.533v-2.164zm3.535 4.308c0-.295.261-.534.589-.534.325 0 .589.243.589.534v2.164c0 .294-.262.533-.59.533-.325 0-.588-.243-.588-.533v-2.164zM73.679 70.424c0-.295.261-.534.589-.534.325 0 .589.243.589.534v2.164c0 .294-.262.533-.59.533-.325 0-.588-.243-.588-.533v-2.164zm3.533 4.308c0-.295.262-.534.59-.534.325 0 .588.243.588.534v2.164c0 .294-.261.533-.589.533-.325 0-.589-.243-.589-.533v-2.164zM80.746 70.424c0-.295.262-.534.59-.534.325 0 .588.243.588.534v2.164c0 .294-.261.533-.589.533-.325 0-.589-.243-.589-.533v-2.164zm3.534 4.308c0-.295.262-.534.59-.534.325 0 .588.243.588.534v2.164c0 .294-.261.533-.589.533-.325 0-.589-.243-.589-.533v-2.164zM87.814 70.424c0-.295.262-.534.59-.534.325 0 .588.243.588.534v2.164c0 .294-.261.533-.589.533-.325 0-.589-.243-.589-.533v-2.164zm3.534 4.308c0-.295.262-.534.59-.534.324 0 .588.243.588.534v2.164c0 .294-.261.533-.589.533-.325 0-.589-.243-.589-.533v-2.164zM94.882 70.424c0-.295.262-.534.59-.534.324 0 .588.243.588.534v2.164c0 .294-.261.533-.589.533-.325 0-.589-.243-.589-.533v-2.164zM3 79.98c0-.295.261-.534.589-.534.325 0 .589.243.589.533v2.164c0 .295-.261.534-.589.534-.325 0-.589-.243-.589-.534V79.98zm3.534 4.307c0-.294.261-.533.589-.533.325 0 .589.243.589.533v2.164c0 .295-.262.534-.59.534-.324 0-.588-.243-.588-.534v-2.164zM10.068 79.98c0-.295.261-.534.589-.534.325 0 .589.243.589.533v2.164c0 .295-.262.534-.59.534-.324 0-.588-.243-.588-.534V79.98zm3.534 4.307c0-.294.261-.533.589-.533.325 0 .589.243.589.533v2.164c0 .295-.262.534-.59.534-.325 0-.588-.243-.588-.534v-2.164zM17.136 79.98c0-.295.261-.534.589-.534.325 0 .589.243.589.533v2.164c0 .295-.262.534-.59.534-.325 0-.588-.243-.588-.534V79.98zm3.534 4.307c0-.294.261-.533.589-.533.325 0 .589.243.589.533v2.164c0 .295-.262.534-.59.534-.325 0-.588-.243-.588-.534v-2.164zM24.204 79.98c0-.295.261-.534.589-.534.325 0 .589.243.589.533v2.164c0 .295-.262.534-.59.534-.325 0-.588-.243-.588-.534V79.98zm3.533 4.307c0-.294.262-.533.59-.533.325 0 .588.243.588.533v2.164c0 .295-.261.534-.589.534-.325 0-.589-.243-.589-.534v-2.164zM31.271 79.98c0-.295.262-.534.59-.534.325 0 .588.243.588.533v2.164c0 .295-.261.534-.589.534-.325 0-.589-.243-.589-.534V79.98zm3.534 4.307c0-.294.262-.533.59-.533.325 0 .588.243.588.533v2.164c0 .295-.261.534-.589.534-.325 0-.589-.243-.589-.534v-2.164zM38.34 79.98c0-.295.26-.534.588-.534.326 0 .59.243.59.533v2.164c0 .295-.262.534-.59.534-.325 0-.589-.243-.589-.534V79.98zm3.533 4.307c0-.294.262-.533.59-.533.324 0 .588.243.588.533v2.164c0 .295-.261.534-.589.534-.325 0-.589-.243-.589-.534v-2.164zM45.407 79.98c0-.295.262-.534.59-.534.324 0 .588.243.588.533v2.164c0 .295-.261.534-.589.534-.325 0-.589-.243-.589-.534V79.98zm3.534 4.307c0-.294.261-.533.589-.533.325 0 .589.243.589.533v2.164c0 .295-.261.534-.589.534-.325 0-.589-.243-.589-.534v-2.164zM52.475 79.98c0-.295.261-.534.589-.534.325 0 .589.243.589.533v2.164c0 .295-.261.534-.589.534-.325 0-.589-.243-.589-.534V79.98zm3.534 4.307c0-.294.261-.533.589-.533.325 0 .589.243.589.533v2.164c0 .295-.262.534-.59.534-.324 0-.588-.243-.588-.534v-2.164zM59.543 79.98c0-.295.261-.534.589-.534.325 0 .589.243.589.533v2.164c0 .295-.262.534-.59.534-.324 0-.588-.243-.588-.534V79.98zm3.534 4.307c0-.294.261-.533.589-.533.325 0 .589.243.589.533v2.164c0 .295-.262.534-.59.534-.325 0-.588-.243-.588-.534v-2.164zM66.61 79.98c0-.295.262-.534.59-.534.325 0 .589.243.589.533v2.164c0 .295-.262.534-.59.534-.325 0-.588-.243-.588-.534V79.98zm3.535 4.307c0-.294.261-.533.589-.533.325 0 .589.243.589.533v2.164c0 .295-.262.534-.59.534-.325 0-.588-.243-.588-.534v-2.164zM73.679 79.98c0-.295.261-.534.589-.534.325 0 .589.243.589.533v2.164c0 .295-.262.534-.59.534-.325 0-.588-.243-.588-.534V79.98zm3.533 4.307c0-.294.262-.533.59-.533.325 0 .588.243.588.533v2.164c0 .295-.261.534-.589.534-.325 0-.589-.243-.589-.534v-2.164zM80.746 79.98c0-.295.262-.534.59-.534.325 0 .588.243.588.533v2.164c0 .295-.261.534-.589.534-.325 0-.589-.243-.589-.534V79.98zm3.534 4.307c0-.294.262-.533.59-.533.325 0 .588.243.588.533v2.164c0 .295-.261.534-.589.534-.325 0-.589-.243-.589-.534v-2.164zM87.814 79.98c0-.295.262-.534.59-.534.325 0 .588.243.588.533v2.164c0 .295-.261.534-.589.534-.325 0-.589-.243-.589-.534V79.98zm3.534 4.307c0-.294.262-.533.59-.533.324 0 .588.243.588.533v2.164c0 .295-.261.534-.589.534-.325 0-.589-.243-.589-.534v-2.164zM94.882 79.98c0-.295.262-.534.59-.534.324 0 .588.243.588.533v2.164c0 .295-.261.534-.589.534-.325 0-.589-.243-.589-.534V79.98zM3 89.535c0-.294.261-.533.589-.533.325 0 .589.243.589.533V91.7c0 .295-.261.534-.589.534-.325 0-.589-.243-.589-.534v-2.164zm3.534 4.308c0-.294.261-.533.589-.533.325 0 .589.243.589.533v2.164c0 .295-.262.534-.59.534-.324 0-.588-.243-.588-.534v-2.164zM10.068 89.535c0-.294.261-.533.589-.533.325 0 .589.243.589.533V91.7c0 .295-.262.534-.59.534-.324 0-.588-.243-.588-.534v-2.164zm3.534 4.308c0-.294.261-.533.589-.533.325 0 .589.243.589.533v2.164c0 .295-.262.534-.59.534-.325 0-.588-.243-.588-.534v-2.164zM17.136 89.535c0-.294.261-.533.589-.533.325 0 .589.243.589.533V91.7c0 .295-.262.534-.59.534-.325 0-.588-.243-.588-.534v-2.164zm3.534 4.308c0-.294.261-.533.589-.533.325 0 .589.243.589.533v2.164c0 .295-.262.534-.59.534-.325 0-.588-.243-.588-.534v-2.164zM24.204 89.535c0-.294.261-.533.589-.533.325 0 .589.243.589.533V91.7c0 .295-.262.534-.59.534-.325 0-.588-.243-.588-.534v-2.164zm3.533 4.308c0-.294.262-.533.59-.533.325 0 .588.243.588.533v2.164c0 .295-.261.534-.589.534-.325 0-.589-.243-.589-.534v-2.164zM31.271 89.535c0-.294.262-.533.59-.533.325 0 .588.243.588.533V91.7c0 .295-.261.534-.589.534-.325 0-.589-.243-.589-.534v-2.164zm3.534 4.308c0-.294.262-.533.59-.533.325 0 .588.243.588.533v2.164c0 .295-.261.534-.589.534-.325 0-.589-.243-.589-.534v-2.164zM38.34 89.535c0-.294.26-.533.588-.533.326 0 .59.243.59.533V91.7c0 .295-.262.534-.59.534-.325 0-.589-.243-.589-.534v-2.164zm3.533 4.308c0-.294.262-.533.59-.533.324 0 .588.243.588.533v2.164c0 .295-.261.534-.589.534-.325 0-.589-.243-.589-.534v-2.164zM45.407 89.535c0-.294.262-.533.59-.533.324 0 .588.243.588.533V91.7c0 .295-.261.534-.589.534-.325 0-.589-.243-.589-.534v-2.164zm3.534 4.308c0-.294.261-.533.589-.533.325 0 .589.243.589.533v2.164c0 .295-.261.534-.589.534-.325 0-.589-.243-.589-.534v-2.164zM52.475 89.535c0-.294.261-.533.589-.533.325 0 .589.243.589.533V91.7c0 .295-.261.534-.589.534-.325 0-.589-.243-.589-.534v-2.164zm3.534 4.308c0-.294.261-.533.589-.533.325 0 .589.243.589.533v2.164c0 .295-.262.534-.59.534-.324 0-.588-.243-.588-.534v-2.164zM59.543 89.535c0-.294.261-.533.589-.533.325 0 .589.243.589.533V91.7c0 .295-.262.534-.59.534-.324 0-.588-.243-.588-.534v-2.164zm3.534 4.308c0-.294.261-.533.589-.533.325 0 .589.243.589.533v2.164c0 .295-.262.534-.59.534-.325 0-.588-.243-.588-.534v-2.164zM66.61 89.535c0-.294.262-.533.59-.533.325 0 .589.243.589.533V91.7c0 .295-.262.534-.59.534-.325 0-.588-.243-.588-.534v-2.164zm3.535 4.308c0-.294.261-.533.589-.533.325 0 .589.243.589.533v2.164c0 .295-.262.534-.59.534-.325 0-.588-.243-.588-.534v-2.164zM73.679 89.535c0-.294.261-.533.589-.533.325 0 .589.243.589.533V91.7c0 .295-.262.534-.59.534-.325 0-.588-.243-.588-.534v-2.164zm3.533 4.308c0-.294.262-.533.59-.533.325 0 .588.243.588.533v2.164c0 .295-.261.534-.589.534-.325 0-.589-.243-.589-.534v-2.164zM80.746 89.535c0-.294.262-.533.59-.533.325 0 .588.243.588.533V91.7c0 .295-.261.534-.589.534-.325 0-.589-.243-.589-.534v-2.164zm3.534 4.308c0-.294.262-.533.59-.533.325 0 .588.243.588.533v2.164c0 .295-.261.534-.589.534-.325 0-.589-.243-.589-.534v-2.164zM87.814 89.535c0-.294.262-.533.59-.533.325 0 .588.243.588.533V91.7c0 .295-.261.534-.589.534-.325 0-.589-.243-.589-.534v-2.164zm3.534 4.308c0-.294.262-.533.59-.533.324 0 .588.243.588.533v2.164c0 .295-.261.534-.589.534-.325 0-.589-.243-.589-.534v-2.164zM94.882 89.535c0-.294.262-.533.59-.533.324 0 .588.243.588.533V91.7c0 .295-.261.534-.589.534-.325 0-.589-.243-.589-.534v-2.164z"/></g></svg>